<svg id="Layer_1" data-name="Layer 1" xmlns="http://www.w3.org/2000/svg" viewBox="0 0 799.43 589.47"><defs><style>.cls-1{fill:none;stroke:#f74133;stroke-miterlimit:10;}.cls-2{fill:#f74133;}.cls-3,.cls-6{fill:#fff;}.cls-4{fill:#161616;}.cls-5{font-size:61.64px;}.cls-5,.cls-6{font-family:Roboto-Bold, Roboto;font-weight:700;}.cls-6{font-size:232.8px;}</style></defs><title>404-01</title><line class="cls-1" x1="18.09" y1="403.53" x2="788.09" y2="403.53"/><circle class="cls-2" cx="403.75" cy="353.83" r="124.36"/><path class="cls-3" d="M407.22,182.24S360,177.37,356.37,223.9s6.06,57.25,26.66,92.27,38.77,33.34,44.72,27.53,10.29-9.23,16.57-33.14c4.89-18.61,19.06-21,20.33-54.62,1.2-31.87-10.56-56.19-17.42-63C439.53,185.34,422,179.69,407.22,182.24Z"/><path class="cls-4" d="M419.6,348.58a19,19,0,0,1-3.35-.16c-8-1.07-20.51-7.38-34.65-31.41-2-3.32-3.8-6.41-5.55-9.34-16.95-28.33-24.68-41.26-21.33-83.9,1.1-14.05,6.2-25,15.15-32.42,14.77-12.3,34.78-11,37.28-10.78,15.81-2.63,33.69,3.75,41.24,11.22,6.4,6.33,19.19,30.35,17.91,64.21-.81,21.56-7,30.8-12.4,39-3.2,4.8-6.22,9.34-8,16-6.13,23.33-10.6,27.68-16.27,33.18l-.75.73A13.93,13.93,0,0,1,419.6,348.58ZM401.16,183.81c-7.18.29-19.57,2.07-29.19,10.1-8.23,6.87-12.92,17-14,30.12-3.27,41.59,4.29,54.23,20.87,81.94,1.75,2.93,3.61,6,5.56,9.36,14.18,24.09,26.29,29,32.24,29.81,4,.54,7.68-.45,9.9-2.62l.76-.74c5.5-5.34,9.48-9.2,15.37-31.64,1.9-7.21,5.07-12,8.43-17,5.44-8.17,11.07-16.62,11.85-37.25,1.22-32.44-11.12-56-16.94-61.73-7-6.93-23.74-12.83-38.56-10.27l-.23,0-.22,0A48.74,48.74,0,0,0,401.16,183.81Z"/><path class="cls-4" d="M413.25,285.89h-.51c-8.07-.49-9.88-10.22-12-21.47a115.65,115.65,0,0,0-3.76-16,8.1,8.1,0,0,0-4.49-4.85c-11.11-5.26-35.66,3.81-35.9,3.9l-1.16-3.1c1.06-.39,26.12-9.64,38.47-3.79a11.43,11.43,0,0,1,6.21,6.78A120.39,120.39,0,0,1,404,263.81c1.84,9.9,3.43,18.44,8.92,18.77a1.36,1.36,0,0,0,1.15-.45c3.41-3.4,2.5-19.24,1.89-29.72-.59-10.26-.68-13.7.49-15.16,3.49-4.39,17.47-8.58,46.23-7.2l-.15,3.3c-29.28-1.4-41.17,3.2-43.44,5.89-.5,1.28-.13,7.76.17,13,.91,15.76,1.28,28.14-2.85,32.26A4.69,4.69,0,0,1,413.25,285.89Zm5.88-46.69Z"/><ellipse class="cls-4" cx="379.33" cy="254.03" rx="9.72" ry="4.49" transform="translate(-10.09 15.75) rotate(-2.35)"/><ellipse class="cls-4" cx="439.08" cy="247.61" rx="10.22" ry="4.57" transform="matrix(1, -0.04, 0.04, 1, -9.77, 18.19)"/><text class="cls-5" transform="translate(398.77 335.57) rotate(-2.35)">0</text><path class="cls-4" d="M355.88,232.44s95.92-23.78,96.38-31.58-20.14-16.69-20.14-16.69-28.71-7.19-41.1-1-17.11,5-28.19,19.64C358.42,213.66,355.88,232.44,355.88,232.44Z"/><path class="cls-4" d="M355.08,250.86s-54-36.31-8.06-82.7,122.68-11.6,122.68-11.6,46.7,57-5.1,74.92c-1.07-3.4-5.08-28.49-19.39-41.23-7-4.19-25.85-10.84-37.74-9.35s-23,.17-35.17,10.78S356.81,212.36,355,229.36,355.08,250.86,355.08,250.86Z"/><path class="cls-3" d="M358.5,255.13l-4.34-2.9c-1-.68-24.64-16.82-27.12-41.77-1.47-14.77,4.86-29.39,18.8-43.47,19.17-19.34,46.81-27.52,80-23.67a168.53,168.53,0,0,1,44.6,11.73l.35.16.24.3c1,1.27,25.29,31.26,18.51,55.17-2.91,10.27-11.1,17.79-24.35,22.36l-1.6.56L463,232c-.17-.53-.37-1.41-.66-2.64-1.71-7.41-6.26-27.07-18.15-37.75-6.71-4-25-10.49-36.55-9.05-2.28.29-4.54.48-6.73.65-9.29.77-18.06,1.48-27.55,9.74-12,10.46-15,20.14-16.77,36.61-1.73,16,0,20.65,0,20.69Zm46.68-109.22c-19.65.8-40.44,6.71-57,23.41C335,182.65,329,196.38,330.33,210.11c1.78,18,15.87,31.51,22.39,36.86-.3-3.36-.34-8.92.61-17.79,1.83-17,5.1-27.62,17.89-38.74,10.31-9,20-9.77,29.45-10.54,2.15-.18,4.38-.36,6.59-.64,12.39-1.56,31.85,5.4,38.8,9.57l.25.19c12.75,11.35,17.5,31.86,19.28,39.58.06.25.12.48.17.71,11.17-4.24,18.08-10.8,20.55-19.52,6-21-15.13-48.68-17.64-51.88C465.16,156.4,436.63,144.62,405.18,145.91Z"/><path class="cls-3" d="M444.28,311.08a.3.3,0,0,1,.48-.21c5.8,4.19,64.69,51.5,54.66,171.92C491.33,580,494,574,487,592.84L321.66,596s-15.88-24.15-19.19-119.16C296.19,443.1,291.62,385,306.6,364c16.62-23.19,26.76-41.52,73.41-53.21,3.29,5.56,13.78,26.43,25.37,31.65s22,9.31,32.66-11.41C443,316.75,444.07,312.37,444.28,311.08Z"/><path class="cls-4" d="M488.16,594.48l-167.38,3.21-.5-.76c-.66-1-16.16-25.6-19.46-119.89-5.5-29.68-11.64-91.53,4.44-114l3.34-4.71c15.07-21.29,27-38.11,71-49.14l1.19-.3.63,1.06c.42.7.94,1.63,1.57,2.75,4.35,7.75,13.4,23.89,23.06,28.23,10.88,4.89,20.28,9.12,30.46-10.55,5-14.33,6-18.48,6.12-19.6h0a2,2,0,0,1,3.09-1.29c2.68,1.94,65.7,48.94,55.34,173.4-2.31,27.78-3.74,47-4.77,61-2.6,35.09-2.65,35.76-7.74,49.46Zm-165.56-.13,163.25-3.14c4.54-12.27,4.66-13.81,7.15-47.49,1-14,2.46-33.27,4.77-61.06,9.41-113-42.14-160.88-52.34-169.18-.7,2.71-2.28,8-5.83,18.13l-.09.22c-11.63,22.58-23.94,17-34.8,12.15-10.66-4.79-20.07-21.56-24.6-29.62-.33-.6-.63-1.14-.91-1.62-41.86,10.74-53.37,27-67.9,47.54L308,365c-15.45,21.56-9.28,82.4-3.85,111.56l0,.12v.12C307.07,561.4,320.05,589.59,322.6,594.35Zm123.31-283h0Z"/><path class="cls-4" d="M420.52,360.84a103.44,103.44,0,0,1-16.88-.9c-23.11-2.85-45.13-39.43-46.06-41l-1-1.76,22.72-7.7.7,1.07a186,186,0,0,0,26.45,30.6c6,3.89,11.57,4.81,16.53,2.74,13.95-5.82,19.66-32.89,19.72-33.16l.61-3,2.17,2.13s5.73,5.64,13,12.93l.6.6-.13.83C454.47,352.38,438.54,360.1,420.52,360.84Zm-59-41.83c4.69,7.32,23.76,35.33,42.54,37.65,23.43,2.89,45.86,1,51.49-32.08-4.38-4.37-8.13-8.08-10.33-10.26-2,7.54-8.2,27.3-21,32.64-6.06,2.53-12.7,1.49-19.74-3.1l-.22-.17a193.17,193.17,0,0,1-26.35-30.25Z"/><path class="cls-3" d="M464.86,237.7s1-13.27,6.69-7.67,13.54,7.62,7.61,33.93-12.05,38.24-12,48,4.4,12.27,28,47.1c6.82,14.51,13.28,41.11,15.15,65.92,1.89,25-10.87,85.46-25.2,97.15-13.93,11.36-26.74-25.75-27-59.6s1.35-61.92.54-81.74-7.47-39.77-9.92-52.12-4.06-23.18,1.79-32.37S465.74,278.13,464.86,237.7Z"/><path class="cls-4" d="M480.25,525.84a8.77,8.77,0,0,1-4.09-.87c-12-5.62-19.53-36.8-19.69-62.46-.11-15.63.18-30.15.43-43,.29-15.08.54-28.1.11-38.72-.58-14-4.14-28.23-7-39.64-1.12-4.47-2.18-8.69-2.88-12.23-2.52-12.69-4.11-24,2-33.58.62-1,1.28-1.94,2-2.94,5.74-8.47,12.89-19,12.11-54.71v-.16c.16-2.09,1-9,4.53-10.35,1.1-.41,2.85-.46,5,1.63.7.7,1.45,1.34,2.23,2,5.51,4.74,11.2,9.64,5.84,33.46-2.72,12.07-5.46,21.07-7.67,28.31-2.52,8.27-4.34,14.25-4.33,19.3,0,6.53,2.12,9.54,12.31,24,4,5.64,8.92,12.65,15.4,22.21l.13.22c7.22,15.34,13.51,42.69,15.31,66.5,1.92,25.38-11.08,86.54-25.81,98.55A9.9,9.9,0,0,1,480.25,525.84Zm-13.74-288.1c.79,36.68-6.68,47.7-12.69,56.55-.66,1-1.3,1.92-1.9,2.86-5.47,8.6-4,18.76-1.56,31.16.69,3.46,1.74,7.64,2.85,12.07,2.9,11.56,6.51,25.94,7.1,40.31.44,10.73.19,23.79-.11,38.93-.25,12.78-.53,27.28-.43,42.87.18,27.31,8.5,55.11,17.8,59.49,2.15,1,4.26.63,6.46-1.16,13.8-11.26,26.43-71.58,24.6-95.74-1.77-23.4-7.91-50.19-14.95-65.23-6.42-9.48-11.34-16.44-15.29-22C468,323,465.48,319.52,465.47,311.93c0-5.54,1.88-11.72,4.48-20.27,2.19-7.18,4.91-16.12,7.6-28.06,4.93-21.89.22-25.94-4.76-30.23-.8-.68-1.62-1.39-2.4-2.16s-1.29-1-1.49-.89C467.83,230.72,466.77,234.55,466.51,237.74Z"/><rect class="cls-4" x="417.16" y="347.57" width="3.31" height="11.28" transform="translate(-25.42 32.56) rotate(-4.32)"/><rect class="cls-4" x="383.47" y="371.29" width="57.32" height="3.31" transform="translate(-139.89 308.08) rotate(-35.44)"/><circle class="cls-4" cx="418.84" cy="368.14" r="5.05"/><circle class="cls-4" cx="397.28" cy="383.23" r="5.05"/><path class="cls-3" d="M360.35,317.18c.35,2.6-61.44,21.87-62.41,77.57-1.3,74.12,28.81,161.67,55.43,113.3s41.36-130.11,36.78-156.19-28.19-61.3-29.13-70-9.57-34-9.57-34-31.3-23.24-18.1,14.16,30.17,52.47,28.46,67.71-27.45,99.19-28.5,102.15"/><path class="cls-4" d="M337.81,523.61a12.12,12.12,0,0,1-3.66-.42c-22.49-6-38.82-74-37.86-128.47.81-46.49,42.36-67.77,58-75.79,1.3-.66,2.61-1.33,3.54-1.85a153.69,153.69,0,0,0-7.46-14.62c-5.54-10.06-12.44-22.57-18.58-39.95-4.26-12.07-4.43-19.35-.5-22.24,6.23-4.61,19.64,5.08,21.15,6.2l.41.3.17.49c.35,1,8.69,25.61,9.64,34.4.33,3.08,4.22,10.66,8.72,19.44,7.41,14.46,17.56,34.26,20.4,50.47,4.62,26.36-10.42,109-37,157.27C349.55,518.41,343.84,523.36,337.81,523.61ZM359,320.22c-.84.46-1.89,1-3.19,1.66-15.16,7.76-55.43,28.39-56.21,72.89-1,57.09,16.87,120.29,35.41,125.23,5.73,1.53,11.42-2.77,16.92-12.75,26.24-47.69,41.15-129.19,36.61-155.11-2.76-15.72-12.78-35.26-20.09-49.53-5-9.82-8.67-16.91-9.07-20.59-.84-7.78-8.12-29.63-9.32-33.2-4.36-3.13-13.55-8.29-16.8-5.89-1.16.85-3.32,4.37,1.66,18.48,6,17.12,12.87,29.5,18.36,39.45,3.37,6.12,6.25,11.34,8.11,16.19L362,317a1.71,1.71,0,0,1-.21,1.19,25.79,25.79,0,0,1,1.67,11.71c-1.7,15.15-27.35,99-28.58,102.51l-3.12-1.1c1.23-3.48,26.74-86.81,28.42-101.78A22,22,0,0,0,359,320.22Z"/><ellipse cx="415.42" cy="313.17" rx="10.11" ry="20.51" transform="translate(-12.48 17.28) rotate(-2.35)"/><line class="cls-1" x1="549.06" y1="185.53" x2="549.06" y2="596.53"/><line class="cls-1" x1="704.64" y1="185.53" x2="704.64" y2="596.53"/><line class="cls-1" x1="254.48" y1="189.09" x2="254.48" y2="592.97"/><line class="cls-1" x1="80.48" y1="189.09" x2="80.48" y2="592.97"/><text class="cls-6" transform="translate(101.07 379.86)">4</text><text class="cls-6" transform="translate(548.39 379.19)">4</text><text class="cls-6" transform="translate(100.73 594.53)">4</text><text class="cls-6" transform="translate(550.05 594.53)">4</text></svg>