<svg xmlns="http://www.w3.org/2000/svg" viewBox="0 0 1568 1282"><defs><style>.cls-1{fill:none;stroke:#000;stroke-linecap:round;stroke-linejoin:round;stroke-width:2px;}</style></defs><g id="Layer_9" data-name="Layer 9"><g id="MAP"><g id="BAC"><line class="cls-1" x1="325.88" y1="313.78" x2="325.88" y2="313.77"/><path class="cls-1" d="M301.5,261.5c0,2-1,2.5,0,6.25,1,3.5,1.11,8-.44,8.89s-4.56-.14-5.56-3.14c-2-2-5.87,4.53-9,5-4.06.61-9.81-12.23-16.36-5.7a19.92,19.92,0,0,0-5.64-9.3c0-3,2-18-3-21-4,0-13,1-9-7,0-3.83-2.59-7.31-5.08-9.51,1.78,1.15,5.08-1.49,5.08-1.49s1-8,3-11,10,11,12,14,7,10,9,8,2-14,5-17,9-6,9-6,8,10,12,9v7s5,1,2,8c0,2,0,7,5,9a20,20,0,0,1,2,9c2,0,4,1,3,6C312.5,261.5,305.5,261.5,301.5,261.5Z"/><path class="cls-1" d="M329.13,303.18c4.27,4.35,2.37,8.32,1.37,9.32a8.1,8.1,0,0,1-4.62,1.28,4.68,4.68,0,0,1-4.65-2.72c-3.27-3.44-9.73-2.56-12.73-2.56-2,0-4,4-7,2-9-4-8-13-7-15,2-1,2-4,1.18-5.24s-3.18-.76-6.18,1.24c-11,5-19-4-19-4,.68,0,1.83-7.43-.36-14.7,6.55-6.53,12.3,6.31,16.36,5.7,3.13-.47,7-7,9-5,1,3,4,4,5.56,3.14s1.44-5.39.44-8.89c-1-3.75,0-4.25,0-6.25,4,0,11,0,13-1,1-5-1-6-3-6,5-5,7,1,10,3a9.92,9.92,0,0,0,6.39,1.57c5.38,2.56,18.61,30.43,18.61,30.43s-8,4-13,5S327.23,300.15,329.13,303.18Z"/><path class="cls-1" d="M404.75,399c-1.5,3.92-3.59,4.24-1.92,8.85a26.2,26.2,0,0,1-5.33-1.39c2-5-1-7-7-9-17-6-21.3-17.71-21.3-17.71,2.83.77,5.7,1.71,7.3,1.71,3,0,1-4-1-6,5,3,8.1-1.5,10.95-1.75l4.38,1.75s-3.33,9.52,5.67,11.26S409,392.58,404.75,399Z"/><path class="cls-1" d="M407.07,368.92s-1.66,4.08-3.11,4.83c-1.92.5-3.46-1.25-5.46,1.75h-7.67l-4.38-1.75c-3.05-.75-3.95-7.25-3.95-9.25,3-6,6-3,11-4,4.48-.89,3.34-3.49,3.06-4,1.68,2.54,3.76,4.7,6.27,5.52C402.83,362,404.81,365.18,407.07,368.92Z"/><path class="cls-1" d="M431.5,385.5s-2,6-11,6c0,0-4,8-8,9,0,0-4,7-6,8,0,0-1.7-.24-3.67-.61-1.67-4.61.42-4.93,1.92-8.85,4.25-6.46.75-10.54-8.25-12.28s-5.67-11.26-5.67-11.26h7.67c2-3,3.54-1.25,5.46-1.75,1.45-.75,3.11-4.83,3.11-4.83,2.73,4.54,5.88,9.94,6.43,11.58C415.5,380.5,426.5,382.5,431.5,385.5Z"/><path class="cls-1" d="M436.5,364.5s-2,6-3,6c0,0,0,9-2,15-5-3-16-5-18-5-.55-1.64-3.7-7-6.43-11.58-2.26-3.74-4.24-6.92-4.24-6.92s6.67-.5,9.67-3.5h9.25s-1.25,7,7.75,7C431.5,363.5,433.5,362.5,436.5,364.5Z"/><path class="cls-1" d="M412.5,358.5c-3,3-9.67,3.5-9.67,3.5-2.51-.82-4.59-3-6.27-5.52l0-.07,0,0a44.57,44.57,0,0,1-5-11.88s0-4,5-7c0,0,9.13,1.07,10.57,2.53-4,3.61-2.15,9.89.43,12.47A44.32,44.32,0,0,1,412.5,358.5Z"/><path class="cls-1" d="M393.5,360.5c-5,1-8-2-11,4-5-1-8-7-8-14s-21-17.78-21-17.78c.93-3.39,2-7.29,3-10.22,1.94-5.81,6-4,6.27-3.91h0c.36,1.77.64,3.26,1.59,4.08,2.13,1.83,5.13,4.83,10.13,2.83a46.28,46.28,0,0,0,4.87-8.34l1.13,1.34v24.21s5,3.79,11,1.79a44.57,44.57,0,0,0,5,11.88l0,0,0,.07C396.84,357,398,359.61,393.5,360.5Z"/><path class="cls-1" d="M375.5,375.5c2,2,4,6,1,6-1.6,0-4.47-.94-7.3-1.71-2.46-.68-4.89-1.24-6.42-.94-3.56-.7-9.62-3.59-18.45-14-5.66-.76-12.07,1-18.45-3.67-.62-1.3.62-6.71,4.62-6.71,4,1,7,0,8-1s3-7-2-11c-11-6-7.91-17.88-7.91-17.88C334.85,339,349.15,340.81,351.3,340a66.17,66.17,0,0,0,2.22-7.31s21,10.71,21,17.78,3,13,8,14c0,2,.9,8.5,3.95,9.25C383.6,374,380.5,378.5,375.5,375.5Z"/><path class="cls-1" d="M379.37,308.45v8.71a46.28,46.28,0,0,1-4.87,8.34c-5,2-8-1-10.13-2.83-.95-.82-1.23-2.31-1.59-4.08h0c-.45-2.22-1-4.86-3.27-7.09-4-4-3-7-3-7s12,1,14-7c0,0,4.73,5.08,5.36,7A7.62,7.62,0,0,0,379.37,308.45Z"/><path class="cls-1" d="M397.5,332.5a43.31,43.31,0,0,1-1,5c-5,3-5,7-5,7-6,2-11-1.79-11-1.79V318.5l-1.13-1.34v-8.71a24.37,24.37,0,0,0,4.13,2.05,55.47,55.47,0,0,1,8,6l3,5s-3,1-3,5S397.5,331.5,397.5,332.5Z"/><path class="cls-1" d="M409.5,338.5a8.64,8.64,0,0,0-2.43,1.53c-1.44-1.46-10.57-2.53-10.57-2.53a43.31,43.31,0,0,0,1-5c0-1-6-2-6-6s3-5,3-5a18.55,18.55,0,0,1,9.74,2.86c5.26,3.14,11.26,6.14,11.26,6.14S416.5,335.5,409.5,338.5Z"/><path class="cls-1" d="M460.5,315.5s-5,20-28,12c-8-9-17,3-17,3s-6-3-11.26-6.14a18.55,18.55,0,0,0-9.74-2.86l-3-5c1-2,6-5,7-8s0-7,2-10c3-2,7.21-.16,7.21-.16-.94.8-1.53,1.53-1.21,2.16,0,2,1,4,4,5s5,5,7,6,6,1,9-4,4-10,21-8c1,4,1,7,6,9S458.5,314.5,460.5,315.5Z"/><path class="cls-1" d="M431.17,338.13c-5.33,9.62-2.67,15.37-4.67,17.37s-3,3-4.75,3H412.5a44.32,44.32,0,0,0-5-6c-2.58-2.58-4.42-8.86-.43-12.47a8.64,8.64,0,0,1,2.43-1.53c7-3,6-8,6-8s9-12,17-3c-6,0-7,2-8,4C424.5,335.05,427.66,337,431.17,338.13Z"/><path class="cls-1" d="M447.5,359.5s-3,2-6,1c0,0-3,4-5,4-3-2-5-1-7,1-9,0-7.75-7-7.75-7,1.75,0,2.75-1,4.75-3s-.66-7.75,4.67-17.37c.44.13.88.26,1.33.37A85.63,85.63,0,0,0,443.37,340s.87,8.32,0,8.89-2.87,2.58-1.87,3.58a5.12,5.12,0,0,0,2.65,1.2c-.87,1-1.84,1.8-2.65,1.8C441.5,355.5,447.5,355.5,447.5,359.5Z"/><path class="cls-1" d="M510.5,339.5l-1,3-1.31-.79-3.69,4.2V340.5l2-3s2,1,1.88,0S510.5,339.5,510.5,339.5Z"/><path class="cls-1" d="M499.5,333.5l-3,4-3,3v2l-1,5-5,5a1,1,0,0,1-1-1c0-1,1.65-3.61,1.65-3.61H482.5l-1-.39-3.61-2,1.61-3,7,3,3-6h2l.88-2.2,2-3.8Z"/><path class="cls-1" d="M524.5,305.5c0,3-4,5-6,6-2-2-3-3-3-4s-7,0-7,0l-1,5s-7,1-8,6c0,0-3,2-3,3l-4-1-1,2s-2,3.61,0,4.31a13.84,13.84,0,0,0,4,.69s-4,2-4,4-5,7-5,7l-2-2a22.69,22.69,0,0,0,1-4c0-1,2-4,2-4v-3l-2-2-3,3,2,5-1,4-2,1-2,2-5,1-4,6-3-3-1-5-2,2h-2l-3.91,6-6.09-3s-1,6-6,8a24.13,24.13,0,0,1-2.34,3.2h0a5.12,5.12,0,0,1-2.65-1.2c-1-1,1-3,1.87-3.58s0-8.89,0-8.89a85.63,85.63,0,0,1-10.87-1.53c-.45-.11-.89-.24-1.33-.37-3.51-1.1-6.67-3.08-6.67-6.63,1-2,2-4,8-4,23,8,28-12,28-12,2,1,13-1,13-1s0-4-2-6c-1-3-2-9,11-10,2,0,6,0,8-2,2,1,6,5,12,0C505.5,296.5,516.5,295.5,524.5,305.5Z"/><path class="cls-1" d="M471.5,308.5c2,2,2,6,2,6s-11,2-13,1-2-5-7-7-5-5-6-9c-17-2-18,3-21,8s-7,5-9,4-4-5-7-6-4-3-4-5c-.32-.63.27-1.36,1.21-2.16,2-1.73,5.79-3.79,5.79-5.84,0-3-3-2-6-3s-3.26-11-3.26-11c-.48-4-1.74-7,5.26-14,3-4,6-13,0-18,2-1,2-6,6-3,3,3,3,7,6,7s0-4,12-5c1,2,10,4,8,24,3,3,18,9,20,8a32.17,32.17,0,0,1,1,8c3,1,10,4,10,7a18.66,18.66,0,0,0,4-3s6,5,6,9C469.5,299.5,470.5,305.5,471.5,308.5Z"/><path class="cls-1" d="M413.5,292.5c0,2.05-3.75,4.11-5.79,5.84,0,0-4.21-1.84-7.21.16-2,3-1,7-2,10s-6,6-7,8a55.47,55.47,0,0,0-8-6,24.37,24.37,0,0,1-4.13-2.05,7.62,7.62,0,0,1-3.51-3.91c-.63-2-5.36-7-5.36-7-2-1-3.39-5-1.7-8s1.7-12,.7-14c4-2,11-7,17-2,4,2,7,0,10,1s5.48,3,7.74,4c0,0,.26,10,3.26,11S413.5,289.5,413.5,292.5Z"/><path class="cls-1" d="M409.5,264.5c-7,7-5.74,10-5.26,14-2.26-1-4.74-3-7.74-4s-6,1-10-1c-6-5-13,0-17,2-10-19-3-25,1-30s3-13,3-13a4.85,4.85,0,0,0,2,0c5-1,7-7.15,12.48-3.57,1,2.14-2.48,2.57-2.48,4.57s-2,8,7,8c5,0,7-3,9-3s4,2,4,7c2,1,2,2,4,1C415.5,251.5,412.5,260.5,409.5,264.5Z"/><path class="cls-1" d="M450.5,217.5s-6,8-6,13-2,6-2,6-8-2-9-3c1,4,1,11,0,12-12,1-9,5-12,5s-3-4-6-7c-4-3-4,2-6,3s-2,0-4-1c0-5-2-7-4-7s-4,3-9,3c-9,0-7-6-7-8s3.52-2.43,2.48-4.57c-5.51-3.58-7.48,2.57-12.48,3.57a4.85,4.85,0,0,1-2,0c-3.31-.67-4-5-4-5,3-4-10-11-12-12,1-6,4-7,10-8s6-12.69,6-12.69a30.82,30.82,0,0,1,2,3.69c4,3,12,4,12,4s2,11,10,7,13-4,13-4,9,9,9,10,8-2,10-3,9,0,10,2S450.5,217.5,450.5,217.5Z"/><path class="cls-1" d="M370.5,245.5c-4,5-11,11-1,30,1,2,1,11-.7,14s-.3,7,1.7,8c-2,8-14,7-14,7l-10-15s-13.23-27.87-18.61-30.43a5.47,5.47,0,0,0,4.61-3.57c2-5,3-8,6-6s5-2,6-6c2-13,5-15,8-15,2,1,14,3,17-1,0,0,.72,4.35,4,5C373.53,232.52,374.5,240.5,370.5,245.5Z"/><path class="cls-1" d="M362.77,318.59c-.26-.12-4.33-1.9-6.27,3.91-1,2.93-2.05,6.83-3,10.22A66.17,66.17,0,0,1,351.3,340c-2.15.78-16.45-1.08-22.71-15.41a35.46,35.46,0,0,1-2.71-10.84,8.1,8.1,0,0,0,4.62-1.28c1-1,2.9-5-1.37-9.32-1.9-3-.63-7.68,4.37-8.68s13-5,13-5l10,15s-1,3,3,7C361.73,313.73,362.32,316.37,362.77,318.59Z"/><path class="cls-1" d="M357.5,215.5c2,1,15,8,12,12s-15,2-17,1c-3,0-6,2-8,15-1,4-3,8-6,6s-4,1-6,6a5.47,5.47,0,0,1-4.61,3.57,9.92,9.92,0,0,1-6.39-1.57c-3-2-5-8-10-3a20,20,0,0,0-2-9c-5-2-5-7-5-9,3-7-2-8-2-8v-7c4-1,3-6,17-7,5-2,8-7,9-12s1-9,7-11,23-8,25-12c0,0,8.22,7.47,13,15.31,0,0,0,11.69-6,12.69S358.5,209.5,357.5,215.5Z"/><path class="cls-1" d="M338.5,353.5c-1,1-4,2-8,1-4,0-5.24,5.41-4.62,6.71l-13.38-.71c-2-5-20-20-26-23q-7.5,0-9,3c-3,1-13-2-18,15-5,0-13-7-15-9,0,0-13,2-18-7,0,0-1-1,2-4s1-6,2-7,8,2,8,2a17.5,17.5,0,0,0-1-5c2-3,4-9,3-13-4-3-5-5-4-8a9.27,9.27,0,0,0,6,1.79c2-.21,1-3.79,0-6.79,7-3,8.25-13,4.75-21-4.25-9,2.09-11.67,2.09-11.67,6,4.57,10.34,9.28,12.16,15.65a13.52,13.52,0,0,0,9,5s8,9,19,4c3-2,5.35-2.49,6.18-1.24s.82,4.24-1.18,5.24c-1,2-2,11,7,15,3,2,5-2,7-2,3,0,9.46-.88,12.73,2.56a4.68,4.68,0,0,0,4.65,2.72,35.46,35.46,0,0,0,2.71,10.84s-3.09,11.88,7.91,17.88C341.5,346.5,339.5,352.5,338.5,353.5Z"/><path class="cls-1" d="M270.5,287.5a13.52,13.52,0,0,1-9-5c-1.82-6.37-6.12-11.08-12.16-15.65-.6-.45-1.21-.9-1.84-1.35-7-5-13,4-13,4s-15-12-20-13-16-6-16-6l-19-24c2-2,4-7,5-9,2-2,9-2,14,2s11,14,13,16,8,1,12-4,13-17,14-17,8,6,9,10a2.75,2.75,0,0,0,.59,1.2,1.81,1.81,0,0,0,.33.29c2.49,2.2,5.08,5.68,5.08,9.51-4,8,5,7,9,7,5,3,3,18,3,21a19.92,19.92,0,0,1,5.64,9.3C272.33,280.07,271.18,287.5,270.5,287.5Z"/><path class="cls-1" d="M247.25,278.52c3.5,8,2.25,18-4.75,21,1,3,2,6.58,0,6.79a9.27,9.27,0,0,1-6-1.79c-1,3,0,5,4,8,1,4-1,10-3,13a17.5,17.5,0,0,1,1,5s-7-3-8-2,1,4-2,7-2,4-2,4c-6,0-8-3-8-5-1-3-13-17-15-19s4-10,6-11c1-4-2-4,0-8s4-10-1-13c-2-3-3-10-3-10s-4,12-7,14c-3,0-6-12-8-17-4-4-25-25-24-28s11-14,13-16l19,24s11,5,16,6,20,13,20,13,6-9,13-4c.63.45,1.24.9,1.84,1.35C249.34,266.85,243,269.54,247.25,278.52Z"/><polygon class="cls-1" points="464.62 353.25 463.5 355.5 462.5 356.5 461.5 360.5 459.56 360.5 457.5 357.5 453.13 353.7 453.13 349.68 454.5 348.5 459.5 348.5 460.5 350.81 462.5 351.5 462.5 353.25 464.62 353.25"/><path class="cls-1" d="M499.5,333.5l-3,4-3,3v2l-1,5-5,5a1,1,0,0,1-1-1c0-1,1.65-3.61,1.65-3.61H482.5l-1-.39-3.61-2,1.61-3,7,3,3-6h2l.88-2.2,2-3.8Z"/><path class="cls-1" d="M510.5,339.5l-1,3-1.31-.79-3.69,4.2V340.5l2-3s2,1,1.88,0S510.5,339.5,510.5,339.5Z"/></g><g id="TRUNG"><path class="cls-1" d="M571.5,975.5s-6,0-9,9c0,0-6,0-7,1,0,0-6,0-6,1,0,0-5,9-11,8,0,0-1,7-4,7s-2-3-2-3a3.55,3.55,0,0,0-3,2s-6-3-13,7c0,0,2,5,1,6s-4,3-9,2c0,0-8,1-10,4,0,0-8,2-9,3-.24.24-.87.81-1.76,1.53l-6.24-14.53s6-6,6.23-8.81-8.36-8-10.1-10.35c2.13-1.17,10.1-20.15,10.1-20.15,12.24,3.7,17.77,1.31,20.77-.69,5,0,7,3,8,7,0,1,3,3,4,1,0-4,12-6,12.54-6.93s-.54-9.07,0-10.54,15.46,1.47,17.46,0a2.25,2.25,0,0,0,.86-1.69s6.14-.84,8.14,3.16,2,6,6,7S571.5,968.5,571.5,975.5Z"/><path class="cls-1" d="M594.5,945.5v3l-3,4v3l-1,3s-6-1-8-4c0,0,0,4-1,6s-1,13-1,13-4,6-9,2c0-7-2-6-6-7s-4-3-6-7-8.14-3.16-8.14-3.16c.21-1.9-.86-4.65-.86-6.84,4-2,7-1,8-4.08s-1-4.92-4-7.92c5-6.5,6.25-14.25,6.25-20.38,0,0,7.75-2.62,9.75,2.38,1,5-1,7,2,10,4,1,7,.35,9,2.18s2,7.82,6,7.82H591l.48,3S594.5,944.5,594.5,945.5Z"/><path class="cls-1" d="M554.5,939.5c3,3,4.89,4.84,4,7.92s-4,2.08-8,4.08c0,2.19,1.07,4.94.86,6.84a2.25,2.25,0,0,1-.86,1.69c-2,1.47-16.92-1.47-17.46,0s.54,9.61,0,10.54-12.54,2.93-12.54,6.93c-1,2-4,0-4-1-1-4-3-7-8-7-3,2-8.53,4.39-20.77.69-3.46-2.38-5.23-3.69-6.23-3.69s-5-4-5-7a26.39,26.39,0,0,0-7-1s-3-9,4-14c2,1,5,2,11-2,2.16-.07,7,0,11-8,1,2,0,4,4,5s6-2,11,3c4,0,10-2,10-9-2-5-5.39-7.49-5.69-12.25,2.38-1.5,1.69-2.75,17.69-5.75,0,0,2-15,9-14,5,1,6,6,9,8,4,1,7,1,9-1a43.79,43.79,0,0,1,1.25,10.62C560.75,925.25,559.5,933,554.5,939.5Z"/><path class="cls-1" d="M609.5,886.52c0,2,0,5-1,5a10.07,10.07,0,0,0-3,1l-1-3s-2,0-2-1a3.49,3.49,0,0,0-1-2l1-2v-2l-2-2s-8.13,7-6.57,12,7.57,12,7.57,12v2l-2,1h-1.14l-1.86-1-3-6-3-1-2,1s4,4,5,6a10,10,0,0,1,1,4l-1,2v3l-1,2s2,3,1,5,2,9,3,10a4.94,4.94,0,0,1,1,3v3l-2,1-1-1-1-3v-2h-1a1,1,0,0,0-1,1l-1,2-2,2s-2,3-1,3c-4,0-4-6-6-7.82s-5-1.18-9-2.18c-3-3-1-5-2-10-2-5-9.75-2.38-9.75-2.38a43.79,43.79,0,0,0-1.25-10.62c0-3-2-10,1-11s10-1,10-1c2-3,1-8,1-8s5,0,7-2c1-3-1-6,3-10,0,0,10,1,15-2,6-1,9,0,9,0v8S609.5,884.55,609.5,886.52Z"/><path class="cls-1" d="M514.81,921.25c.3,4.76,3.69,7.25,5.69,12.25,0,7-6,9-10,9-5-5-7-2-11-3s-3-3-4-5c-4,8-8.84,7.93-11,8-6,4-9,3-11,2,0-3,3-4,4-7s-4-6-8.64-9.28c-5.33-3.77-3.81-19.72-3.81-19.72a9,9,0,0,1,5.45-1c7,1,8,4,11,1,2.79-2.79,10.77-17.7,6.24-31.84l15.76-2.16s1,18,10,23c6,6,19,18,19,18C516.5,918.5,517.19,919.75,514.81,921.25Z"/><path class="cls-1" d="M578.5,886.5c-2,2-7,2-7,2s1,5-1,8c0,0-7,0-10,1s-1,8-1,11c-2,2-5,2-9,1-3-2-4-7-9-8-7-1-9,14-9,14s-13-12-19-18c-9-5-10-23-10-23l-15.76,2.16a26.17,26.17,0,0,0-1.24-3.16c-4-5-4-16,2-25a43.27,43.27,0,0,0,2.24-12.14l43.76,1.14s5,10,10,9c1,2,2,8,2,8s7,11,12,10c2,3,2,7.35,15.48,5.18,3,2.64,7.52,6.82,7.52,6.82C577.5,880.5,579.5,883.5,578.5,886.5Z"/><path class="cls-1" d="M609.5,872.5c0,2-4,2-4,2s-3-1-9,0c-5,3-15,2-15,2s-4.48-4.18-7.52-6.82c-13.52,2.17-13.48-2.18-15.48-5.18-1-8,12.52-14.78,15.48-17.22,1.48-3.23-2.48-8.78-4.48-11.78,0-3,5.49-7.52,5.49-7.52a13.26,13.26,0,0,0,8.51-2.35c4-3.13,5-8.13,10-9.13,0,0,3,6,3,8,0,0,2.41,3.67,2.2,5.84,0,0,3.8,4.16,1.8,8.16-2,0-4-4-4-5s-2,2-2,2,0,5,2,7,3,14,3,14S609.5,870.5,609.5,872.5Z"/><path class="cls-1" d="M598.5,815.5c-1,0-4-2-4-2l-1,3c-5,1-6,6-10,9.13A13.26,13.26,0,0,1,575,828a11,11,0,0,1-5.49-1.48c0-3-1-13-4-19,0-3-2-11-4-13-8-9-7-33-7-33,4-1,6-4,8-3,3,0,4-5,7-5s7,3,14-1c1,1,1,12,1,12a20.92,20.92,0,0,1,4,12s3,4,3,11c0,0,5,1,4,3a3.55,3.55,0,0,1-3,2,61.25,61.25,0,0,0,4,6c1,1,1,5,0,5.48C596.5,804,599.5,806.5,598.5,815.5Z"/><path class="cls-1" d="M569.5,835.5c2,3,6,8.55,4.48,11.78-3,2.44-16.48,9.22-15.48,17.22-5,1-12-10-12-10s-1-6-2-8c-5,1-10-9-10-9l-43.76-1.14a31.75,31.75,0,0,0-5.24-18.86c-2-6-4-13-3-16,4-1,12-7,13-10s2-7,5-7,4.44-2,6.56-3c2.57,1,10.44,1,13.44,0,2-2,7-8,9-8s5,5,7,7c1-2,8-6,8-10s0-7,3-8,2.68-5.21,2.68-5.21c1.22,2.63,2.59,4.56,4.32,4.21,0,0-1,24,7,33,2,2,4,10,4,13,3,6,4,16,4,19A11,11,0,0,0,575,828S569.5,832.5,569.5,835.5Z"/><path class="cls-1" d="M583.5,752.5c-7,4-11,1-14,1s-4,5-7,5c-2-1-4,2-8,3-1.73.35-3.1-1.58-4.32-4.21-2.3-5-4.06-12.44-6.68-11.79-6,3-11-12-11-12,0-3-2-14,5-16s20,0,27-7c0,0-1,4,1,5s1-7,1-7,0-2,1-2,5,4,5,10c0,0,4,2,4,3s-3,4-3.8,4.14c.77,1.35,3.67,9,2.8,9.86s-1,6,0,9S582.5,751.5,583.5,752.5Z"/><path class="cls-1" d="M550.18,757.29s.32,4.21-2.68,5.21-3,4-3,8-7,8-8,10c-2-2-5-7-7-7s-7,6-9,8c-3,1-10.87,1-13.44,0-2.12,1-3.56,3-6.56,3s-4,4-5,7-9,9-13,10c-4-3-11-7-7-13,3-6,3-13,3-14s1-1,5-5c3.24-3.24,3.85-9.09,2.91-14.91a35.53,35.53,0,0,0-.91-4.09c-2-7,3-10,3-10l-5-5s6-7,9-8c0-.17-.06-.35-.08-.53s-.06-.37-.08-.56,0-.39-.08-.58-.05-.41-.07-.62c-.05-.4-.09-.81-.13-1.23a1.94,1.94,0,0,0,0-.24c0-.28-.05-.56-.07-.84,0-.08,0-.15,0-.23s0-.41,0-.62l-.06-.86c0-.58-.07-1.16-.1-1.75,0-.3,0-.59,0-.88s0-.58,0-.87c0-1.17-.08-2.32-.11-3.41V714c0-.28,0-.56,0-.82s0-.62,0-.92c0-2.1,0-3.82,0-4.76-3-2-16-5-20-18-4-3-7-9-7-9s10-6,16-5c2-3,2-10,2-10s1,4,8,1c3,0,3,3,6,3,4-1,3.6-4,6.8-4h5.08s1.12,3,7.12,2c2,1,1,1.93,0,4s-.69,4,1.15,4.51,13.85-.48,19.85-3.48c4,3,7,11,7,11s12,19,13,19h1s3,2,3,3,4,5,4,5c-7,7-20,5-27,7s-5,13-5,16c0,0,5,15,11,12C546.12,744.85,547.88,752.32,550.18,757.29Z"/><polygon class="cls-1" points="551.5 673.5 551.5 676.5 547.5 675.5 546.5 673.5 547.5 671.5 550.5 671.5 551.5 673.5"/><path class="cls-1" d="M533.5,665.5c0,2-1,4,3,7-6,3-18,4-19.85,3.48s-2.15-2.45-1.15-4.51,2-3,0-4c-6,1-7.12-2-7.12-2s-2.88-6,3.12-9c4,0,9,0,12-1,0,0,5-2,6-1s-1,3-2,4-2,6,0,6a3.19,3.19,0,0,0,3-3,2.15,2.15,0,0,1,2-2c1,0,8-1,8,3A6.1,6.1,0,0,1,533.5,665.5Z"/><polygon class="cls-1" points="510.5 644.5 510.5 645.61 507.5 645.5 501.5 639.5 498.5 635.5 495.5 632.5 501.16 632.5 510.5 644.5"/><path class="cls-1" d="M523.5,655.5c-3,1-8,1-12,1-6,3-3.12,9-3.12,9H503.3c-3.2,0-2.8,3-6.8,4-3,0-3-3-6-3-7,3-8-1-8-1s-5,3-9-1-9-8-11-9,0-5-2-9l7-6s-5-6,0-9.51,9,1.51,11,1.51c2-2,6-3,6-7,0,0,7,3,7,4v3s12,8,13,15c0,0,3,5,8,1,0,0,7-3,8-1C520.5,647.5,519.5,654.5,523.5,655.5Z"/><path class="cls-1" d="M484.5,625.5c0,4-4,5-6,7-2,0-6-5-11-1.51s0,9.51,0,9.51l-7,6c-2,0-7,1-11-4a15,15,0,0,1-3.5-10h-6.5l2,6s-3-2-5-2-5-12-10-15c-1-5-1-17-1-17s17,4,20,1,11-7,13-10c0,0,4,4,4,7,0,0,4,2,4,4,0,0-1.75,3.49-2.79,4,.84-.17,4.06-.68,5.79,1a17.27,17.27,0,0,1,3,4s7,2,9,6C481.5,621.5,484.5,623.5,484.5,625.5Z"/><path class="cls-1" d="M458.5,595.5c-2,3-10,7-13,10s-20-1-20-1-13-3-11-16c-2-6-3-7-3-7s-2,5-5,3-15-16-20-21c-6-4-16-15-16-25,0,0,8-9,17.48-8,5,1,11,2,10.28,8,2.48,1,8.24,5,12.24,2s9-5,16-2c0,0-3,6-4,7,0,0,0,16,11,25C433.5,570.5,445.5,585.5,458.5,595.5Z"/><path class="cls-1" d="M426.5,538.5c-7-3-12-1-16,2s-9.76-1-12.24-2c.77-6-5.24-7-10.28-8-9.51-1-17.48,8-17.48,8-2-5-6-17-15-16-7-6-14-16-17-22,3-3,6-9,6-9s15,1,20,3a13.31,13.31,0,0,0,12.12-1.5c1.88-1.5,3.44-10,3.44-10a10.86,10.86,0,0,1,1.44,2.5c0,1,2,7,2,12,0,0,13,10,18,22,0,0,2-2,3-2s9,3,12,11c0,0,4-1,5-2l1,5S426.5,535.5,426.5,538.5Z"/><path class="cls-1" d="M372.5,472.5s5,6.69,7.56,10.5c0,0-1.56,8.5-3.44,10a13.31,13.31,0,0,1-12.12,1.5c-5-2-20-3-20-3s-13-13-27-11c-6-6-21-20-29-20-4-4-11-12-20-11-3-4-6-5-2-8,5-2,11-5,12-22,5-1,21,0,23,2s12,2,18-4c4-4,8-11.6,10.54-17.38,0,0,1.46,7.38,10.46,7.38,3,0,5,3,3,7s3,8,4,9,2,9,3,11,3.09,1,4.05,0c1.9,0,.95,2,1.95,3s2,2,7,1c3-1,4.41,1.74,5.7,4.87s3.3,4.13,5.3,4.13c3-1,3-5,5-3l3,3a11.23,11.23,0,0,1-3,11s1,3,0,5-4.34,0-4.67,0S372.5,472.5,372.5,472.5Z"/><path class="cls-1" d="M397.5,406.5a20.2,20.2,0,0,0-5,10s-3,7-5,9c0,0-4,21-5,22l-3-3c-2-2-2,2-5,3-2,0-4-1-5.3-4.13s-2.7-5.87-5.7-4.87c-5,1-6,0-7-1s-.05-3-1.95-3c-1,1-3.05,2-4.05,0s-2-10-3-11-6-5-4-9,0-7-3-7c-9,0-10.46-7.38-10.46-7.38a49.28,49.28,0,0,0,2.46-6.62c1-4-21-8-21-8s1-10,5-13a90.51,90.51,0,0,0-17,5c-2,1-2-4-1-6s11-9,14-11l13.38.71c6.38,4.7,12.79,2.91,18.45,3.67,8.83,10.38,14.89,13.27,18.45,14,1.53-.3,4,.26,6.42.94,0,0,4.3,11.71,21.3,17.71C396.5,399.5,399.5,401.5,397.5,406.5Z"/><polygon class="cls-1" points="510.5 644.5 510.5 645.61 507.5 645.5 501.5 639.5 498.5 635.5 495.5 632.5 501.16 632.5 510.5 644.5"/><polygon class="cls-1" points="551.5 673.5 551.5 676.5 547.5 675.5 546.5 673.5 547.5 671.5 550.5 671.5 551.5 673.5"/></g><g id="NAM"><path class="cls-1" d="M449.5,1018.5c-1,2-1,9-1,9a3.38,3.38,0,0,0-.08.34c-.16.63-.32,1.29-.5,2-.06.2-.11.4-.17.61-.82,2.81-2,5.47-4.35,6a4.37,4.37,0,0,1-.54.08h-.36a22,22,0,0,1-1-8s-3,6-5,3c-1-5-4.54-4-4.54-4-.55-2,0-9,0-9s-8.81-1-11.11-2c.35-2-3.35-5-4.35-7,1-2,3-7,3-11-1-4-10-7-10-7,3-1,4-4,4-8,0,0,2-1,7,4,4,4,10.2,10.23,15.6,9.62,0,0,6.4,6.38,4.4,10.38-1,3-6,4-6,4s2.09,4,4.05,5S444.5,1015.5,449.5,1018.5Z"/><path class="cls-1" d="M487.74,1024h0c-2.86,2.33-8.42,6.22-12.24,5.46-4,1-9,7-14,6-3,2-7,6-11,3-3-2,0-4,0-4a3.1,3.1,0,0,0,2-1,.34.34,0,0,0,.1-.34l0-.1c-.42-1.11-4.48-3.12-4.07-5.56,0,0,0-7,1-9,5-1,7-8,9-10,5,0,19-3,21-3s2,4,2,4Z"/><path class="cls-1" d="M347.5,1120.5c-2,5-8,16-12,16-3,3-15,22-35,14,0-4,3-4,3-4s-1-3,3-5,4-5,4-5-4,3-6,0,0-11,1-12c0-2-2-5,0-11,.8-3.21,1-19.28,1-27.07,0,0,10-3.93,16,1.07a27,27,0,0,0,14,6v13.26c0,1.74-1,5.74,1,7.74s2,4,3,5S347.5,1118.5,347.5,1120.5Z"/><path class="cls-1" d="M374.5,1108.5c-1,0-25,7-27,12,0-2-6,0-7-1s-1-3-3-5-1-6-1-7.74V1093.5c1,0,5-3,4-7a10.82,10.82,0,0,0-4-6s5-2,8,1c1,1,6,2,10,1l.58,2.09s-.58,8.84,1.42,10.87,4,2,6,3,10.77-2,11.39,0S374.5,1108.5,374.5,1108.5Z"/><path class="cls-1" d="M396.5,1100.5c-1,1-9,2-9,3s-7,1-8,1-4,4-5,4c0,0,0-8-.61-10s-9.39,1-11.39,0-4-1-6-3-1.42-10.87-1.42-10.87,6.42-3.09,10.42-3.09,8-8,9-12,0-6.09,3-9l20,23c0,2-1,8,0,9s0,4-1,4S397.5,1099.5,396.5,1100.5Z"/><path class="cls-1" d="M421.5,1078.5c0,2-3,11-9,12-4-1-13-6-15-7l-20-23c1,0,3.54-1,6.27,0s5.93-2,8.33-3.47,11.4-1.48,11.4-1.48,10,15,14,17C418.5,1074.5,421.5,1076.5,421.5,1078.5Z"/><path class="cls-1" d="M377.5,1060.45c-3,3-2,5-3,9s-5,12-9,12-10.42,3.09-10.42,3.09l-.58-2.09c-4,1-9,0-10-1-2-3,2-12,7-14s5-4.23,5-4.23,10-9.78,13-9.78C369.5,1053.5,376.5,1060.41,377.5,1060.45Z"/><path class="cls-1" d="M369.5,1053.5c-3,0-13,9.78-13,9.78l-22-20.78c1,0,2-3,6-3a20.16,20.16,0,0,0,11-3l13,12Z"/><path class="cls-1" d="M356.5,1063.28s0,2.24-5,4.23-9,11-7,14c-3-3-8-1-8-1a10.82,10.82,0,0,1,4,6c1,4-3,7-4,7a27,27,0,0,1-14-6c-6-5-16-1.07-16-1.07,0-1.92,0-3.34,0-3.93,1-5,5-16,14-20,4-2,5-7,2-9s-6-3-8-2-7-2-8-6c-3-3-4-4-7-2s-3,6-6,5-1-8-1-8-6-6-6-10a11,11,0,0,1-4-2s10-9,14-9,11,2,11,2c-5,5,26,21,27,21Z"/><path class="cls-1" d="M403.5,1055.5s-9,0-11.4,1.48-5.6,4.52-8.33,3.47-5.27,0-6.27,0-8-7-8-7l-5-5a7.91,7.91,0,0,1,7-2c4,1,6,0,6-1v-5.94a7.15,7.15,0,0,0,4,0s2,1.94,7.21,2.94S403.5,1055.5,403.5,1055.5Z"/><path class="cls-1" d="M356.5,1024.5c0,2-2,10-5,12a20.16,20.16,0,0,1-11,3c-4,0-5,3-6,3s-32-16-27-21c0,0,13-11,17-11q1.5-6,0-9c-1-2,1-5,2-6,.83-.83,5.08-.28,7.66,1.07,0,0-2.66,1.93.34,4.93a23.08,23.08,0,0,0,7,5c2,1,2.2,3,2.6,5s-.32,5,2.54,7S356.5,1022.5,356.5,1024.5Z"/><path class="cls-1" d="M436.5,1053.5a3.1,3.1,0,0,1-4,2s-1,3-4,3a2.4,2.4,0,0,0-2,4c1,1,5,3,5,4s-3,2-3,2-3,0-3,1,2,4,0,4-7-6-8-5-1,2,0,4c-4-2-14-17-14-17s-9.58-12-14.79-13-7.21-2.94-7.21-2.94c3-1.06,8-2.06,11-.06,1,1,5,1,8-1,2-1,9-1,12,0s12,2,15,3C428.5,1042.5,437.5,1050.5,436.5,1053.5Z"/><path class="cls-1" d="M377.5,1039.56v5.94c0,1-2,2-6,1a7.91,7.91,0,0,0-7,2l-13-12c3-2,5-10,5-12s-7-4-9.86-6-2.14-5-2.54-7-.6-4-2.6-5a23.08,23.08,0,0,1-7-5c-3-3-.34-4.93-.34-4.93a5.36,5.36,0,0,1,1.34.93,11.77,11.77,0,0,0,12-3c2.21-.55,5-1.11,7.62-1.49,0,0-.62,5.49,3.38,8.49s23,22,23,22-5.38,8.39-7.19,9.2-2.81,1.8-1.81,3.8C373.12,1037.73,375.25,1039,377.5,1039.56Z"/><path class="cls-1" d="M436.5,1031.5c-1,2-1,10-2,11s-6-1-7-1c-3-1-12-2-15-3s-10-1-12,0c-3,2-7,2-8,1-3-2-8-1-11,.06a7.15,7.15,0,0,1-4,0c-2.25-.55-4.38-1.83-5-3.06-1-2,0-3,1.81-3.8s7.19-9.2,7.19-9.2,7,2,9-1,7-4,10-3,6,3,7,5,4,1,5,2.49,2,4.51,3,5.51,12.91-2,16.46-5C432,1027.5,435.5,1026.5,436.5,1031.5Z"/><path class="cls-1" d="M432,1027.5c-3.55,3-15.46,6-16.46,5s-2-4-3-5.51-4-.49-5-2.49-4-4-7-5-8,0-10,3-9,1-9,1-19-19-23-22-3.38-8.49-3.38-8.49a40.5,40.5,0,0,1,5.38-.51,41.3,41.3,0,0,0,9-4,13,13,0,0,1,8,12c2,1,14-1,16,6,2-1,3-1,4-3-1-3-3-6-1-11,0,0,10,0,13-1,0,0,9,3,10,7,0,4-2,9-3,11,1,2,4.7,5,4.35,7,2.3,1,11.11,2,11.11,2S431.41,1025.5,432,1027.5Z"/><path class="cls-1" d="M487.73,1000.69c-.23,2.81-6.23,8.81-6.23,8.81s0-4-2-4-16,3-21,3c-2,2-4,9-9,10-5-3-9-1-10.95-2s-4.05-5-4.05-5,5-1,6-4c2-4-4.4-10.38-4.4-10.38a16.87,16.87,0,0,1,5.4-6.62c4-3,3-7,3-11,11-21,25-21,25-21a26.39,26.39,0,0,1,7,1c0,3,4,7,5,7s2.77,1.31,6.23,3.69c0,0-8,19-10.1,20.15C479.37,992.66,488,997.88,487.73,1000.69Z"/><path class="cls-1" d="M441.5,990.5a16.87,16.87,0,0,0-5.4,6.62c-5.4.61-11.6-5.62-15.6-9.62-5-5-7-4-7-4,0-4-2-4-5-9,0-6,4-8.07,4-8.07,2,1.14,11.1,1.46,11.55,3.76,1.9.62,5.45-3.69,7.45-1.69,1,3-1,7.71,3,9.86,4,1.28,6-2.86,10,1.14C444.5,983.5,445.5,987.5,441.5,990.5Z"/><path class="cls-1" d="M408.5,974.5c3,5,5,5,5,9s-1,7-4,8-13,1-13,1c-1-3-2-7-6-9s-15-6-11-19c1-5,1-9-1-10a2.83,2.83,0,0,1,0-5c2-1,8-1,9-3s2-8,5-6,11,5,12,7,7,1,8,0c0,0,6,5,3,12a9.18,9.18,0,0,0-3,6.93S408.5,968.5,408.5,974.5Z"/><path class="cls-1" d="M477.5,937.5c-1,3-4,4-4,7-7,5-4,14-4,14s-14,0-25,21c-4-4-6,.14-10-1.14-4-2.15-2-6.86-3-9.86-2-2-5.55,2.31-7.45,1.69-.45-2.3-9.55-2.62-11.55-3.76a9.18,9.18,0,0,1,3-6.93c3-7-3-12-3-12,1-1,1-16,5-18s11,1,14,0,4-6,8-7,15-2,17-5c1.43-2.15,4.4-6.87,8.55-9,0,0-1.52,16,3.81,19.72C473.5,931.5,478.5,934.5,477.5,937.5Z"/><path class="cls-1" d="M425.5,1143.5c0,1-1,2-2,4s-2,2-4,2-2-2-2-4,3-1,4-2a39.87,39.87,0,0,0,3-4A22.69,22.69,0,0,1,425.5,1143.5Z"/><path class="cls-1" d="M261.5,1037.5s-3,3.07-3,4v13.83s-4-1.87-5-5.87-1-7-2-9-6-8-7-9,5-3,6-1c1-3,1.89-4.42,2.44-4.21s2.56-3.79,2.56-3.79a73.65,73.65,0,0,0,5,6Z"/><path class="cls-1" d="M261.5,1037.5s-3,3.07-3,4v13.83s-4-1.87-5-5.87-1-7-2-9-6-8-7-9,5-3,6-1c1-3,1.89-4.42,2.44-4.21s2.56-3.79,2.56-3.79a73.65,73.65,0,0,0,5,6Z"/><path class="cls-1" d="M425.5,1143.5c0,1-1,2-2,4s-2,2-4,2-2-2-2-4,3-1,4-2a39.87,39.87,0,0,0,3-4A22.69,22.69,0,0,1,425.5,1143.5Z"/></g></g><polygon class="cls-1" points="902.73 257.5 902.73 261 898.59 262.5 892.5 262.5 890.5 259.5 892.94 257.5 902.73 257.5"/><polygon class="cls-1" points="884.1 260.81 876.5 264.13 876.5 257.5 881.84 257.5 884.1 260.81"/><polygon class="cls-1" points="853.23 269.5 853.23 275.04 844.5 275.5 848.5 269.5 853.23 269.5"/><polygon class="cls-1" points="844.5 279.18 844.5 286.71 839.5 283.5 844.5 279.18"/><polygon class="cls-1" points="818.97 291.5 815.73 304.5 812.5 300.5 812.5 291.5 818.97 291.5"/><polygon class="cls-1" points="804.5 295.5 803.16 300.5 795.63 298 804.5 295.5"/><polygon class="cls-1" points="761.5 300.5 759.11 304.5 753.5 304.5 761.5 300.5"/><polygon class="cls-1" points="680.5 333.5 680.5 336.78 676.29 336.78 673.5 334.5 680.5 333.5"/><polygon class="cls-1" points="682.69 346.14 682.69 352.5 676.29 351.09 682.69 346.14"/><path class="cls-1" d="M676.29,341.6s-12.62,5.73-19.2,4.31c-2.74-.58,6.64-4.2,7.53-4.31S676.29,341.6,676.29,341.6Z"/><path class="cls-1" d="M-1.5,1281.5v2h1033v-2Z"/><path class="cls-1" d="M676.29,341.6s-12.62,5.73-19.2,4.31c-2.74-.58,6.64-4.2,7.53-4.31S676.29,341.6,676.29,341.6Z"/><polygon class="cls-1" points="680.5 333.5 680.5 336.78 676.29 336.78 673.5 334.5 680.5 333.5"/><polygon class="cls-1" points="682.69 346.14 682.69 352.5 676.29 351.09 682.69 346.14"/><polygon class="cls-1" points="761.5 300.5 759.11 304.5 753.5 304.5 761.5 300.5"/><polygon class="cls-1" points="804.5 295.5 803.16 300.5 795.63 298 804.5 295.5"/><polygon class="cls-1" points="818.97 291.5 815.73 304.5 812.5 300.5 812.5 291.5 818.97 291.5"/><polygon class="cls-1" points="844.5 279.18 844.5 286.71 839.5 283.5 844.5 279.18"/><polygon class="cls-1" points="853.23 269.5 853.23 275.04 844.5 275.5 848.5 269.5 853.23 269.5"/><polygon class="cls-1" points="884.1 260.81 876.5 264.13 876.5 257.5 881.84 257.5 884.1 260.81"/><polygon class="cls-1" points="902.73 257.5 902.73 261 898.59 262.5 892.5 262.5 890.5 259.5 892.94 257.5 902.73 257.5"/><polygon class="cls-1" points="902.73 257.5 902.73 261 898.59 262.5 892.5 262.5 890.5 259.5 892.94 257.5 902.73 257.5"/><polygon class="cls-1" points="884.1 260.81 876.5 264.13 876.5 257.5 881.84 257.5 884.1 260.81"/><polygon class="cls-1" points="853.23 269.5 853.23 275.04 844.5 275.5 848.5 269.5 853.23 269.5"/><polygon class="cls-1" points="844.5 279.18 844.5 286.71 839.5 283.5 844.5 279.18"/><polygon class="cls-1" points="818.97 291.5 815.73 304.5 812.5 300.5 812.5 291.5 818.97 291.5"/><polygon class="cls-1" points="804.5 295.5 803.16 300.5 795.63 298 804.5 295.5"/><polygon class="cls-1" points="761.5 300.5 759.11 304.5 753.5 304.5 761.5 300.5"/><polygon class="cls-1" points="680.5 333.5 680.5 336.78 676.29 336.78 673.5 334.5 680.5 333.5"/><polygon class="cls-1" points="682.69 346.14 682.69 352.5 676.29 351.09 682.69 346.14"/><path class="cls-1" d="M676.29,341.6s-12.62,5.73-19.2,4.31c-2.74-.58,6.64-4.2,7.53-4.31S676.29,341.6,676.29,341.6Z"/><path class="cls-1" d="M676.29,341.6s-12.62,5.73-19.2,4.31c-2.74-.58,6.64-4.2,7.53-4.31S676.29,341.6,676.29,341.6Z"/><polygon class="cls-1" points="680.5 333.5 680.5 336.78 676.29 336.78 673.5 334.5 680.5 333.5"/><polygon class="cls-1" points="682.69 346.14 682.69 352.5 676.29 351.09 682.69 346.14"/><polygon class="cls-1" points="761.5 300.5 759.11 304.5 753.5 304.5 761.5 300.5"/><polygon class="cls-1" points="804.5 295.5 803.16 300.5 795.63 298 804.5 295.5"/><polygon class="cls-1" points="818.97 291.5 815.73 304.5 812.5 300.5 812.5 291.5 818.97 291.5"/><polygon class="cls-1" points="844.5 279.18 844.5 286.71 839.5 283.5 844.5 279.18"/><polygon class="cls-1" points="853.23 269.5 853.23 275.04 844.5 275.5 848.5 269.5 853.23 269.5"/><polygon class="cls-1" points="884.1 260.81 876.5 264.13 876.5 257.5 881.84 257.5 884.1 260.81"/><polygon class="cls-1" points="902.73 257.5 902.73 261 898.59 262.5 892.5 262.5 890.5 259.5 892.94 257.5 902.73 257.5"/><path class="cls-1" d="M710.5,428.5s-2,4-9,5c-5.21.74-4.88,2-4.79,2.24a2.08,2.08,0,0,0-.21-.24c-1-1-2-9-4-6s-8,21-10,27-3,16-10,21-4,3-1,6,5,0,3,5-5,6-9,2-3,2-9,4-7,15-12,16-6,0-14,1-1,14-3,14-3,1-6.72,1.27-8.28-2.27-10.28-7.27-10,2-17,0-14-5-16-7-3-3-9.77-8-9.23-1-8.23-6,3-4,1.83-8.33-2.83-10.67-5.28-15.73.45-20.94,0-25.94,9.44-2,14.44-5,13-8,15-11,11.71-7.4,12.32-7.68c-.6.1-9.28,1.62-8.25,0s-.07-4.31,1.93-6.31,5-1,10,1,6,2,6-2,2-6,4.66-8.61,6.34-2.39,10.91-1.39.43,4,4.43,3,1-4,3.48-4.73,4.52,4.73,9.52,6.73,2-2,5.16-5,11.84-4,17.32-2.91,6.52,4.91,10.52,5.91,1-2,3.79-7.21,9.21-4.79,9.21-4.79c0,7,6,8,12,9s6-1,7,4-3,8-4,12S710.5,428.5,710.5,428.5Z"/><path class="cls-1" d="M484.5,736.5l5,5s-5,3-3,10a35.53,35.53,0,0,1,.91,4.09c-1.22,1.18-14.75,13.86-31.91,12.91-18-1-33-3-42,16-7,7-31,11-52,2-12.88-.72-19.78,1.68-25.27,2h0c0-.64-1.26-30.26,0-38.07.54-10.78,1.27-25.89,8.27-32.89,1-13,2-28,26-29,3-4-2-8-7-10-6-2-8-7-7-10s-.93-6.9-3-7-9,1-13-3c-4-6-16-20-21-26-4-6-6-36-3-48,2-13-4-21-9-24s-14-8-19-21-11-26-25-27-33-4-36-8c0,0,1,7.7,0,9.85S209.6,535.49,201.05,537s-13.55,3.5-19.55-2.5a37.19,37.19,0,0,0-18-5s-10-16-16-13-11,11-13,10-4,7-11,7-8,1-10,6-2,5-14,10-13,12-16,7-6-4-3-12,5-9,8-17,9-12,5-16,0-10-4-11-12.13-.32-7.06-4.16,9.06-3.84,10.06-4.84,9-12,8-16-2-5,1-10,2-10,0-14-4-7-2-13,3-6,2-11,1-9-5-9-13.49-3-17.24,0-11.76,7-15.76,5-4-2-10-11-5-6.17,0-17.58,5-12.42,1-18.42-2.91-17.58-9-14.29-8,11.29-13,9.29c-3.61-1.44-.22-5.35-2.09-7.84,0,0,5.09-9.16,7.09-15.16s5-3,8.8-8,4.2-3,7.2-4,3,0,8.23,4,5.77-1,3.77-5-5-1-8-4.34,0-3.66,0-6.66,2-3,6.87-6.94S70.5,312.5,70,306.5s2.49-3,4.49-1,8,1,9-3,3-3,9.5-6,6.75-8,6.75-8c1.26,0,1.75,3,2.75,10.28s-2,7.72,0,12.72,6,4,11.56,3.28,7.44-5.28,12.8,0,9.64,1.72,13.18,0-7.54-17.28-2.54-22.28,2-11,0-16-9-18-12-27,2-17,6.63-22,3.37,7,12.37,8,5-3,11-3,8,9.35,8,9.35l4,1.65c-1,3,20,24,24,28,2,5,5,17,8,17,3-2,7-14,7-14s1,7,3,10c5,3,3,9,1,13s1,4,0,8c-2,1-8,9-6,11s14,16,15,19c0,2,2,5,8,5,5,9,18,7,18,7,2,2,10,9,15,9,5-17,15-14,18-15q1.5-3,9-3c6,3,24,18,26,23-3,2-13,9-14,11s-1,7,1,6a90.51,90.51,0,0,1,17-5c-4,3-5,13-5,13s22,4,21,8a49.28,49.28,0,0,1-2.46,6.62c-2.52,5.78-6.53,13.37-10.54,17.38-6,6-16,6-18,4s-18-3-23-2c-1,17-7,20-12,22-4,3-1,4,2,8,9-1,16,7,20,11,8,0,23,14,29,20,14-2,27,11,27,11s-3,6-6,9c3,6,10,16,17,22,9-1,13,11,15,16,0,10,10,21,16,25,5,5,17,19,20,21s5-3,5-3,1,1,3,7c-2,13,11,16,11,16s0,12,1,17c5,3,8,15,10,15s5,2,5,2l-2-6H447a15,15,0,0,0,3.5,10c4,5,9,4,11,4,2,4,0,8,2,9s7,5,11,9,9,1,9,1,0,7-2,10c-6-1-16,5-16,5s3,6,7,9c4,13,17,16,20,18,0,.94,0,2.66,0,4.76,0,.3,0,.61,0,.92s0,.54,0,.82v.28c0,1.09.07,2.24.11,3.41,0,.29,0,.58,0,.87s0,.58,0,.88c0,.59.06,1.17.1,1.75l.06.86c0,.21,0,.41,0,.62s0,.15,0,.23c0,.28,0,.56.07.84a1.94,1.94,0,0,1,0,.24c0,.42.08.83.13,1.23,0,.21.05.41.07.62s.05.39.08.58.05.37.08.56.05.36.08.53C490.5,729.5,484.5,736.5,484.5,736.5Z"/><path class="cls-1" d="M99.75,288.5s-.25,5.05-6.75,8-8.5,2-9.5,6-7,5-9,3-5-5-4.49,1-.78,7.12-5.64,11.06-6.87,3.94-6.87,6.94-3,3.32,0,6.66,6,.34,8,4.34,1.46,9-3.77,5-5.23-5-8.23-4-3.41-1-7.2,4-6.8,2-8.8,8-7.09,15.16-7.09,15.16c-.71-1-2.21-1.71-5.2-2C14.5,360.5,8.5,359.5-.5,359.5V252.31l1-.31c11-3.5,5-2.5,10,1.5s12,2,12,2c7,0,3,2,3.09,4.63s-.09,8.37,1.91,13.37,2,3,6.37,6,1.63,3,.38,4.65A12.74,12.74,0,0,0,31.5,294.5c1,5,7-5,10-3s4,1,7-1,4-3,6.08-2-1.08,7,5.92,6,9-6,18.17-10.33,4.83-3.67,13.93-4.65,4.9-2,4.9,2S98.5,288.5,99.75,288.5Z"/><path class="cls-1" d="M370.5,688.5c-24,1-25,16-26,29-7,7-7.73,22.11-8.27,32.89-1.26,7.81,0,37.43,0,38.07a14.79,14.79,0,0,1-5.73-1c-8-3-40-18-46-17s-63.28,13.41-69.14,21.2-18.86,31.8-51.86,45.8c0,0-17-2-14,5s6.82,8.38,6.82,8.38l7.18,1.54s22,1.7,14,64.89c-2.38-3.94-4.52-7.35-5-7.81s-4.84-.78-9-.75l-6,3.75s-6.33,1.5-4.66-3.75a27.39,27.39,0,0,1,5.19-9.12,11.15,11.15,0,0,0-5.47-5.27c-4.06-1.86-11.23-6.13-12.15-9.5s-3.91-3.36-7.91-8.36-13-8-18-7-7,5-11,7-17,5-20,2-6-3-12-2-10,2-8-4-2-7.83-.52-16.92S61.5,842.5,67,837.5s4.5-8,3.5-12,2-2-4-3-14.4,4-18.7,0-1.3-3-10.3-2-14.15-2.79-22.07-.89c-3.63.87-10,2-15.93,2.7V359.5c9,0,15,1,25.71,2.13,3,.32,4.49,1.07,5.2,2,1.87,2.49-1.52,6.4,2.09,7.84,5,2,7-6,13-9.29s5,8.29,9,14.29,4,7-1,18.42-6,8.58,0,17.58,6,9,10,11,12-2,15.76-5,11.24,0,17.24,0,4,4,5,9,0,5-2,11,0,9,2,13,3,9,0,14-2,6-1,10-7,15-8,16-5,1-10.06,4.84,3.06,3.16,7.06,4.16,0,7,4,11-2,8-5,16-5,9-8,17,0,7,3,12,4-2,16-7,12-5,14-10,3-6,10-6,9-8,11-7,7-7,13-10,16,13,16,13a37.19,37.19,0,0,1,18,5c6,6,11,4,19.55,2.5s25.45-20.5,26.45-22.65,0-9.85,0-9.85c3,4,22,7,36,8s20,14,25,27,14,18,19,21,11,11,9,24c-3,12-1,42,3,48,5,6,17,20,21,26,4,4,11,3,13,3s4,4,3,7,1,8,7,10C368.5,680.5,373.5,684.5,370.5,688.5Z"/><path class="cls-1" d="M491.74,837.36a31.75,31.75,0,0,0-5.24-18.86c-2-6-4-13-3-16-4-3-11-7-7-13,3-6,3-13,3-14s1-1,5-5c3.24-3.24,3.85-9.09,2.91-14.91-1.22,1.18-14.75,13.86-31.91,12.91-18-1-33-3-42,16-7,7-31,11-52,2-12.88-.72-19.78,1.68-25.27,2h0a14.79,14.79,0,0,1-5.73-1c-8-3-40-18-46-17s-63.28,13.41-69.14,21.2-18.86,31.8-51.86,45.8c0,0-17-2-14,5s6.82,8.38,6.82,8.38l7.18,1.54s22,1.7,14,64.89c2.81,4.64,5.94,10,7,12.19,0,4,8,13,10,16,1,5,6,9,8,12-1,3,2,10,2,13-1,2-3,5-3.26,6s1.26,4,2.26,4.62-1,12.38,0,14.38,3,2,4.52,2.07,1.48-2.07,3.48-2.07,3,2,5,4,4-1,5.35-1.93,2.65-14.07,2.65-16.45,4-4.62,6-4.62,2,4,4,6,7,1,7,1,2,0,2,3c-4,5-4,18-5,20s-7,4-9,6a14.63,14.63,0,0,1-5,3s5,5,7.23,6,3.77,4,3.77,4a17.74,17.74,0,0,1,3.58-4c1.57-1,7.42,0,9.42,0,1.62,0,2.58-5.25,2.89-7.24-.27,3.73,4.17,7.24,5.11,7.24,0,0,4-3,6-2,4,3,9.46,1,11,1,1,4,10,9,10,9s10-9,14-9,11,2,11,2,13-11,17-11q1.5-6,0-9c-1-2,1-5,2-6,.83-.83,5.08-.28,7.66,1.07a5.36,5.36,0,0,1,1.34.93,11.77,11.77,0,0,0,12-3c2.21-.55,5-1.11,7.62-1.49a40.5,40.5,0,0,1,5.38-.51,41.3,41.3,0,0,0,9-4,13,13,0,0,1,8,12c2,1,14-1,16,6,2-1,3-1,4-3-1-3-3-6-1-11-1-3-2-7-6-9s-15-6-11-19c1-5,1-9-1-10a2.83,2.83,0,0,1,0-5c2-1,8-1,9-3s2-8,5-6,11,5,12,7,7,1,8,0,1-16,5-18,11,1,14,0,4-6,8-7,15-2,17-5c1.43-2.15,4.4-6.87,8.55-9a9,9,0,0,1,5.45-1c7,1,8,4,11,1,2.79-2.79,10.77-17.7,6.24-31.84a26.17,26.17,0,0,0-1.24-3.16c-4-5-4-16,2-25A43.27,43.27,0,0,0,491.74,837.36ZM251.41,1014.08a1.91,1.91,0,0,1,.07-.47C251.47,1013.71,251.45,1013.87,251.41,1014.08Z"/><path class="cls-1" d="M1124.71-.5c-4.76,2.59-11.67,6.23-21.21,11-22,11-15,7-23,35s-48,19-48,19c-7,34-25.18,74-25.18,74-.43,9.28-2.72,22.8-4.82,27-3,6-9,26-12,37s-33,22-37,24-12,12-18,12-6-1-6-3,4-7,3-11-14,8-14,8l6,10-8,5a28.82,28.82,0,0,0-6-7.6c-4-3.6-6-1.4-10,1.6s-3,3-1,6,11,3,11,3a17,17,0,0,1-7,4c-4,1-11-1-16.39.46s-6.61-3.46-6.61-3.46,9-7,6-7-6-3-9-8-4-11-8-12-6-7-13.39-13-11.61-1-7.61,0,10.62,14,10.62,14H852.5c-4,0-4,5-4,5l11,8-2.64,7.43h4.64V264.5c0,3-4,2-6-1s-14-12-14-12l5,11-5.07,2s.07,10-1.93,11-6-11-6-11-8,13-5,16-4,7-9,8a4.76,4.76,0,0,1-5.93-3.63l-7.07,7.63h-13c-5,6-6,5-13,0s-18,3-18,3l-13-1,3,6c-3,3-6,13-12,12s-2-3-5.24-4.5-7.76,7.5-12,6.77-5.65-5.32-5.65-5.32c-.93,5.95-9.07,5.32-9.07,5.32s-21,9.73-25.94,9.73-5.06,8-5.75,7.27-8.31-11.27-8.31-11.27c1,8-3,18-9.66,20.68s-7.34,1.32-7.53,4.32,5.19,6,5.19,6,14,7,11.75,8-1.75,1-4.14,3.5,3.39,4.5,9,6.92,3.36,2.58,2.36,8.58-8,11-11,13-6,2-15.07,2.64-4.93,1.36-9.79,0-3.14-5.64-3.14-7.64,3-2,5-5.71-12-13.29-14.3-19.35-.72-7.94-1.72-9.94,0-12-.17-15.9,6.4-7.83,6.4-7.83l.77-8.27s6-1,5.63-3.17-9.63-5.83-12.8-8.33-8.25-7.15-9.41-9.85c-4.58,3.65-1.42,12.35-5.42,14.41s-7,.94-14.15,2.21-8.85.73-9.85-2.27,5-5,5-9-12,2-15.48-5-4.52,2-4.52,2h-5c1-4-9-11-9-11,0-11-8,1-8.59,1.53s4.89,6.33,4.89,6.33-4.3,6.14-7.3,1.14-11.52,8-11.52,8c-.52-9-9.48,0-9.48,0-8-10-19-9-22-9-6,5-10,1-12,0-2,2-6,2-8,2,0-4-6-9-6-9a18.66,18.66,0,0,1-4,3c0-3-7-6-10-7a32.17,32.17,0,0,0-1-8c-2,1-17-5-20-8,2-20-7-22-8-24,1-1,1-8,0-12,1,1,9,3,9,3s2-1,2-6,6-13,6-13-10-1-11-3-8-3-10-2-10,4-10,3-9-10-9-10-5,0-13,4-10-7-10-7-8-1-12-4a30.82,30.82,0,0,0-2-3.69c-4.81-7.84-13-15.31-13-15.31-2,4-19,10-25,12s-6,6-7,11-4,10-9,12c-14,1-13,6-17,7s-12-9-12-9-6,3-9,6-3,15-5,17-7-5-9-8-10-17-12-14-3,11-3,11-3.3,2.64-5.08,1.49l-.33-.29a2.75,2.75,0,0,1-.59-1.2c-1-4-8-10-9-10s-10,12-14,17-10,6-12,4-8-12-13-16-12-4-14-2c-1,2-3,7-5,9s-12,13-13,16l-4-1.65s-2-9.35-8-9.35-2,4-11,3-7.74-13-12.37-8-9.63,13-6.63,22,10,22,12,27,5,11,0,16,6.07,20.56,2.54,22.28-7.82,5.28-13.18,0-7.24-.72-12.8,0-9.56,1.72-11.56-3.28,1-5.43,0-12.72S101,288.5,99.75,288.5s-2.25-3-2.25-7,4.2-3-4.9-2-4.75.32-13.93,4.65S67.5,293.5,60.5,294.5s-3.84-5-5.92-6-3.08,0-6.08,2-4,3-7,1-9,8-10,3a12.74,12.74,0,0,1,2.75-10.33c1.25-1.67,4-1.63-.38-4.65s-4.37-1-6.37-6-1.82-10.73-1.91-13.37,3.91-4.63-3.09-4.63c0,0-7,2-12-2s.92-5-10-1.5l-1,.31V-.5Z"/><path class="cls-1" d="M1124.71-.5c-4.76,2.59-11.67,6.23-21.21,11-22,11-15,7-23,35s-48,19-48,19c-7,34-25.18,74-25.18,74-.43,9.28-2.72,22.8-4.82,27-3,6-9,26-12,37s-33,22-37,24-12,12-18,12-6-1-6-3,4-7,3-11-14,8-14,8l6,10-8,5a28.82,28.82,0,0,0-6-7.6c-4-3.6-6-1.4-10,1.6s-3,3-1,6,11,3,11,3a17,17,0,0,1-7,4c-4,1-11-1-16.39.46s-6.61-3.46-6.61-3.46,9-7,6-7-6-3-9-8-4-11-8-12-6-7-13.39-13-11.61-1-7.61,0,10.62,14,10.62,14H852.5c-4,0-4,5-4,5l11,8-2.64,7.43h4.64V264.5c0,3-4,2-6-1s-14-12-14-12l5,11-5.07,2s.07,10-1.93,11-6-11-6-11-8,13-5,16-4,7-9,8a4.76,4.76,0,0,1-5.93-3.63l-7.07,7.63h-13c-5,6-6,5-13,0s-18,3-18,3l-13-1,3,6c-3,3-6,13-12,12s-2-3-5.24-4.5-7.76,7.5-12,6.77-5.65-5.32-5.65-5.32c-.93,5.95-9.07,5.32-9.07,5.32s-21,9.73-25.94,9.73-5.06,8-5.75,7.27-8.31-11.27-8.31-11.27c1,8-3,18-9.66,20.68s-7.34,1.32-7.53,4.32,5.19,6,5.19,6,14,7,11.75,8-1.75,1-4.14,3.5,3.39,4.5,9,6.92,3.36,2.58,2.36,8.58-8,11-11,13-6,2-15.07,2.64-4.93,1.36-9.79,0-3.14-5.64-3.14-7.64,3-2,5-5.71-12-13.29-14.3-19.35-.72-7.94-1.72-9.94,0-12-.17-15.9,6.4-7.83,6.4-7.83l.77-8.27s6-1,5.63-3.17-9.63-5.83-12.8-8.33-8.25-7.15-9.41-9.85c-4.58,3.65-1.42,12.35-5.42,14.41s-7,.94-14.15,2.21-8.85.73-9.85-2.27,5-5,5-9-12,2-15.48-5-4.52,2-4.52,2h-5c1-4-9-11-9-11,0-11-8,1-8.59,1.53s4.89,6.33,4.89,6.33-4.3,6.14-7.3,1.14-11.52,8-11.52,8c-.52-9-9.48,0-9.48,0,0,3-4,5-6,6-2-2-3-3-3-4s-7,0-7,0l-1,5s-7,1-8,6c0,0-3,2-3,3l-4-1-1,2s-2,3.61,0,4.31a13.84,13.84,0,0,0,4,.69s-4,2-4,4-5,7-5,7l-2-2a22.69,22.69,0,0,0,1-4c0-1,2-4,2-4v-3l-2-2-3,3,2,5-1,4-2,1-2,2-5,1-4,6-3-3-1-5-2,2h-2l-3.91,6-6.09-3s-1,6-6,8a24.13,24.13,0,0,1-2.34,3.2h0c-.87,1-1.84,1.8-2.65,1.8,0,0,6,0,6,4,0,0-3,2-6,1,0,0-3,4-5,4,0,0-2,6-3,6,0,0,0,9-2,15,0,0-2,6-11,6,0,0-4,8-8,9,0,0-4,7-6,8,0,0-1.7-.24-3.67-.61a26.2,26.2,0,0,1-5.33-1.39,20.2,20.2,0,0,0-5,10s-3,7-5,9c0,0-4,21-5,22a11.23,11.23,0,0,1-3,11s1,3,0,5-4.34,0-4.67,0-2.33,9-2.33,9,5,6.69,7.56,10.5a10.86,10.86,0,0,1,1.44,2.5c0,1,2,7,2,12,0,0,13,10,18,22,0,0,2-2,3-2s9,3,12,11c0,0,4-1,5-2l1,5s4,4,4,7c0,0-3,6-4,7,0,0,0,16,11,25,0,0,12,15,25,25,0,0,4,4,4,7,0,0,4,2,4,4,0,0-1.75,3.49-2.79,4,.84-.17,4.06-.68,5.79,1a17.27,17.27,0,0,1,3,4s7,2,9,6c0,0,3,2,3,4,0,0,7,3,7,4v3s12,8,13,15c0,0,3,5,8,1,0,0,7-3,8-1,0,0-1,7,3,8,0,0,5-2,6-1s-1,3-2,4-2,6,0,6a3.19,3.19,0,0,0,3-3,2.15,2.15,0,0,1,2-2c1,0,8-1,8,3a6.1,6.1,0,0,1-7,3c0,2-1,4,3,7s7,11,7,11,12,19,13,19h1s3,2,3,3,4,5,4,5-1,4,1,5,1-7,1-7,0-2,1-2,5,4,5,10c0,0,4,2,4,3s-3,4-3.8,4.14c.77,1.35,3.67,9,2.8,9.86s-1,6,0,9,7,9,8,10,1,12,1,12a20.92,20.92,0,0,1,4,12s3,4,3,11c0,0,5,1,4,3a3.55,3.55,0,0,1-3,2,61.25,61.25,0,0,0,4,6c1,1,1,5,0,5.48,0,0,3,2.52,2,11.52-1,0-4-2-4-2l-1,3s3,6,3,8c0,0,2.41,3.67,2.2,5.84,0,0,3.8,4.16,1.8,8.16-2,0-4-4-4-5s-2,2-2,2,0,5,2,7,3,14,3,14,10,14,10,16-4,2-4,2v8s4,2,4,4,0,5-1,5a10.07,10.07,0,0,0-3,1l-1-3s-2,0-2-1a3.49,3.49,0,0,0-1-2l1-2v-2l-2-2s-8.13,7-6.57,12,7.57,12,7.57,12v2l-2,1h-1.14l-1.86-1-3-6-3-1-2,1s4,4,5,6a10,10,0,0,1,1,4l-1,2v3l-1,2s2,3,1,5,2,9,3,10a4.94,4.94,0,0,1,1,3v3l-2,1-1-1-1-3v-2h-1a1,1,0,0,0-1,1l-1,2-2,2s-2,3-1,3H592l.48,3s3,0,3,1v3l-3,4v3l-1,3s-6-1-8-4c0,0,0,4-1,6s-1,13-1,13-4,6-9,2c0,0-6,0-9,9,0,0-6,0-7,1,0,0-6,0-6,1,0,0-5,9-11,8,0,0-1,7-4,7s-2-3-2-3a3.55,3.55,0,0,0-3,2s-6-3-13,7c0,0,2,5,1,6s-4,3-9,2c0,0-8,1-10,4,0,0-8,2-9,3-.24.24-.87.81-1.76,1.53h0c-2.86,2.33-8.42,6.22-12.24,5.46-4,1-9,7-14,6-3,2-7,6-11,3-3-2,0-4,0-4a3.1,3.1,0,0,0,2-1,.34.34,0,0,0,.1-.34l0-.1c-.51-1.06-4.56-2.79-4.15-5.22-.16.63-.32,1.29-.5,2-.06.2-.11.4-.17.61-.79,2.84-1.92,5.49-4.35,6a4.37,4.37,0,0,1-.54.08h-.36a22,22,0,0,1-1-8s-3,6-5,3c-1,2-1,10-2,11s-6-1-7-1c1,1,10,9,9,12a3.1,3.1,0,0,1-4,2s-1,3-4,3a2.4,2.4,0,0,0-2,4c1,1,5,3,5,4s-3,2-3,2-3,0-3,1,2,4,0,4-7-6-8-5-1,2,0,4,4,4,4,6-3,11-9,12c-4-1-13-6-15-7,0,2-1,8,0,9s0,4-1,4,1,3,0,4-9,2-9,3-7,1-8,1-4,4-5,4-25,7-27,12-8,16-12,16c-3,3-15,22-35,14,0-4,3-4,3-4s-1-3,3-5,4-5,4-5-4,3-6,0,0-11,1-12c0-2-2-5,0-11,.8-3.21,1-19.28,1-27.07,0-1.92,0-3.34,0-3.93,1-5,5-16,14-20,4-2,5-7,2-9s-6-3-8-2-7-2-8-6c-3-3-4-4-7-2s-3,6-6,5-1-8-1-8-6-6-6-10a11,11,0,0,1-4-2s-9-5-10-9c-1.54,0-7,2-11-1-2-1-6,2-6,2-.94,0-5.38-3.51-5.11-7.24-.31,2-1.27,7.24-2.89,7.24-2,0-7.85-1-9.42,0a17.74,17.74,0,0,0-3.58,4s-1.53-3-3.77-4-7.23-6-7.23-6a14.63,14.63,0,0,0,5-3c2-2,8-4,9-6s1-15,5-20c0-3-2-3-2-3s-5,1-7-1-2-6-4-6-6,2.25-6,4.62-1.3,15.52-2.65,16.45-3.35,3.93-5.35,1.93-3-4-5-4-2,2.14-3.48,2.07-3.52-.07-4.52-2.07,1-13.75,0-14.38-2.52-3.62-2.26-4.62,2.26-4,3.26-6c0-3-3-10-2-13-2-3-7-7-8-12-2-3-10-12-10-16-1.08-2.16-4.21-7.55-7-12.19-2.38-3.94-4.52-7.35-5-7.81s-4.84-.78-9-.75l-6,3.75s-6.33,1.5-4.66-3.75a27.39,27.39,0,0,1,5.19-9.12,11.15,11.15,0,0,0-5.47-5.27c-4.06-1.86-11.23-6.13-12.15-9.5s-3.91-3.36-7.91-8.36-13-8-18-7-7,5-11,7-17,5-20,2-6-3-12-2-10,2-8-4-2-7.83-.52-16.92S61.5,842.5,67,837.5s4.5-8,3.5-12,2-2-4-3-14.4,4-18.7,0-1.3-3-10.3-2-14.15-2.79-22.07-.89c-3.63.87-10,2-15.93,2.7V1282.5h1792V-.5ZM464.5,356.5l-1,1-1,4h-1.94l-2.06-3-4.37-3.8v-4l1.37-1.18h5l1,2.31,2,.69v1.75h2.12Zm30-13-1,5-5,5a1,1,0,0,1-1-1c0-1,1.65-3.61,1.65-3.61H483.5l-1-.39-3.61-2,1.61-3,7,3,3-6h2l.88-2.2,2-3.8h5.14l-3,4-3,3Zm17,303.11-3-.11-6-6-3-4-3-3h5.66l9.34,12Zm-1-303.11-1.31-.79-3.69,4.2V341.5l2-3s2,1,1.88,0,2.12,2,2.12,2Zm42,334-4-1-1-2,1-2h3l1,2Zm-293,365v13.83s-4-1.87-5-5.87-1-7-2-9-6-8-7-9,5-3,6-1c1-3,1.89-4.42,2.44-4.21s2.56-3.79,2.56-3.79a73.65,73.65,0,0,0,5,6l1,9S259.5,1041.57,259.5,1042.54Zm165,106c-1,2-2,2-4,2s-2-2-2-4,3-1,4-2a39.87,39.87,0,0,0,3-4,22.69,22.69,0,0,1,1,4C426.5,1145.5,425.5,1146.5,424.5,1148.5ZM683.69,347.14v6.36l-6.4-1.41ZM681.5,334.5v3.28h-4.21l-2.79-2.28Zm-23.41,12.41c-2.74-.58,6.64-4.2,7.53-4.31s11.67,0,11.67,0S664.67,348.33,658.09,346.91ZM701.5,433.5c-5.21.74-4.88,2-4.79,2.24a2.08,2.08,0,0,0-.21-.24c-1-1-2-9-4-6s-8,21-10,27-3,16-10,21-4,3-1,6,5,0,3,5-5,6-9,2-3,2-9,4-7,15-12,16-6,0-14,1-1,14-3,14-3,1-6.72,1.27-8.28-2.27-10.28-7.27-10,2-17,0-14-5-16-7-3-3-9.77-8-9.23-1-8.23-6,3-4,1.83-8.33-2.83-10.67-5.28-15.73.45-20.94,0-25.94,9.44-2,14.44-5,13-8,15-11,11.71-7.4,12.32-7.68c-.6.1-9.28,1.62-8.25,0s-.07-4.31,1.93-6.31,5-1,10,1,6,2,6-2,2-6,4.66-8.61,6.34-2.39,10.91-1.39.43,4,4.43,3,1-4,3.48-4.73,4.52,4.73,9.52,6.73,2-2,5.16-5,11.84-4,17.32-2.91,6.52,4.91,10.52,5.91,1-2,3.79-7.21,9.21-4.79,9.21-4.79c0,7,6,8,12,9s6-1,7,4-3,8-4,12,9,5,9,5S708.5,432.5,701.5,433.5Zm58.61-128H754.5l8-4Zm44-4-7.53-2.5,8.87-2.5Zm12.57,4-3.23-4v-9H820Zm28.77-17.79-5-3.21,5-4.32ZM854.23,276l-8.73.46,4-6h4.73Zm23.27-10.91V258.5h5.34l2.26,3.31ZM903.73,262l-4.14,1.5H893.5l-2-3,2.44-2h9.79Z"/><path class="cls-1" d="M260.5,1028.5l1,9s-3,3.07-3,4v13.83s-4-1.87-5-5.87-1-7-2-9-6-8-7-9,5-3,6-1c1-3,1.89-4.42,2.44-4.21s2.56-3.79,2.56-3.79A73.65,73.65,0,0,0,260.5,1028.5Z"/><path class="cls-1" d="M424.5,1139.5a22.69,22.69,0,0,1,1,4c0,1-1,2-2,4s-2,2-4,2-2-2-2-4,3-1,4-2A39.87,39.87,0,0,0,424.5,1139.5Z"/><polygon class="cls-1" points="462.5 351.5 462.5 353.25 464.62 353.25 463.5 355.5 462.5 356.5 461.5 360.5 459.56 360.5 457.5 357.5 453.13 353.7 453.13 349.68 454.5 348.5 459.5 348.5 460.5 350.81 462.5 351.5"/><path class="cls-1" d="M486.5,351.5c0-1,1.65-3.61,1.65-3.61H482.5l-1-.39-3.61-2,1.61-3,7,3,3-6h2l.88-2.2,2-3.8h5.14l-3,4-3,3v2l-1,5-5,5A1,1,0,0,1,486.5,351.5Z"/><path class="cls-1" d="M510.5,339.5l-1,3-1.31-.79-3.69,4.2V340.5l2-3s2,1,1.88,0S510.5,339.5,510.5,339.5Z"/><polygon class="cls-1" points="498.5 635.5 495.5 632.5 501.16 632.5 510.5 644.5 510.5 645.61 507.5 645.5 501.5 639.5 498.5 635.5"/><polygon class="cls-1" points="547.5 675.5 546.5 673.5 547.5 671.5 550.5 671.5 551.5 673.5 551.5 676.5 547.5 675.5"/><path class="cls-1" d="M664.62,341.6c.88-.1,11.67,0,11.67,0s-12.62,5.73-19.2,4.31C654.35,345.33,663.73,341.71,664.62,341.6Z"/><polygon class="cls-1" points="676.29 336.78 673.5 334.5 680.5 333.5 680.5 336.78 676.29 336.78"/><polygon class="cls-1" points="676.29 351.09 682.69 346.14 682.69 352.5 676.29 351.09"/><polygon class="cls-1" points="753.5 304.5 761.5 300.5 759.11 304.5 753.5 304.5"/><polygon class="cls-1" points="795.63 298 804.5 295.5 803.16 300.5 795.63 298"/><polygon class="cls-1" points="812.5 291.5 818.97 291.5 815.73 304.5 812.5 300.5 812.5 291.5"/><polygon class="cls-1" points="839.5 283.5 844.5 279.18 844.5 286.71 839.5 283.5"/><polygon class="cls-1" points="848.5 269.5 853.23 269.5 853.23 275.04 844.5 275.5 848.5 269.5"/><polygon class="cls-1" points="881.84 257.5 884.1 260.81 876.5 264.13 876.5 257.5 881.84 257.5"/><polygon class="cls-1" points="902.73 257.5 902.73 261 898.59 262.5 892.5 262.5 890.5 259.5 892.94 257.5 902.73 257.5"/></g></svg>