<?xml version="1.0" encoding="utf-8"?>
<!-- Generator: Adobe Illustrator 22.0.1, SVG Export Plug-In . SVG Version: 6.00 Build 0)  -->
<svg version="1.1" id="Layer_1" xmlns="http://www.w3.org/2000/svg" xmlns:xlink="http://www.w3.org/1999/xlink" x="0px" y="0px"
	 viewBox="0 0 21 20" style="enable-background:new 0 0 21 20;" xml:space="preserve">
<style type="text/css">
	.st0{fill:#FFFFFF;}
</style>
<path class="st0" d="M0.2,10.1c0,4.9,3.6,9.1,8.4,9.9v-7H6.1v-2.9h2.5V7.9c-0.1-1,0.2-2.1,1-2.8c0.7-0.8,1.8-1.1,2.8-1.1
	c0.8,0,1.5,0.1,2.2,0.2v2.5h-1.3c-0.4-0.1-0.9,0.1-1.2,0.4c-0.3,0.3-0.5,0.7-0.4,1.2v1.9h2.8L14.1,13h-2.3v7
	c5.3-0.8,8.9-5.6,8.4-10.9C19.6,3.7,15-0.2,9.7,0.1C4.4,0.4,0.2,4.7,0.2,10.1z"/>
</svg>
