<svg id="Layer_1" data-name="Layer 1" xmlns="http://www.w3.org/2000/svg" viewBox="0 0 280.29 252.75"><defs><style>.cls-1{fill:#161616;}.cls-2{fill:#fff;}</style></defs><title>fulllogo-black</title><circle class="cls-1" cx="141.29" cy="99.74" r="19.84"/><rect class="cls-1" x="84.65" y="156.26" width="113.39" height="28.35"/><rect class="cls-1" x="84.65" y="14.53" width="113.39" height="28.35"/><rect class="cls-1" x="132.88" y="85.58" width="101.95" height="28.35" transform="translate(283.61 -84.09) rotate(90)"/><rect class="cls-1" x="84.66" y="48.38" width="28.35" height="136.1"/><rect class="cls-1" x="118.56" y="122.39" width="79.46" height="28.35"/><rect class="cls-1" x="118.69" y="48.38" width="79.35" height="28.35"/><circle class="cls-2" cx="141.32" cy="105.2" r="11.34"/><path class="cls-2" d="M141.34,117.06A14.67,14.67,0,1,1,156,102.39,14.69,14.69,0,0,1,141.34,117.06Zm0-28.34A13.67,13.67,0,1,0,155,102.39,13.68,13.68,0,0,0,141.34,88.72Z"/><path class="cls-1" d="M21.8,235H35.88v6.31H13.72v-34H21.8Z"/><path class="cls-1" d="M59.25,234.94H48.17l-1.94,6.36H37.59l12.3-34H57.5l12.39,34H61.2Zm-9.15-6.33h7.21l-3.62-11.8Z"/><path class="cls-1" d="M98.82,229.64a12.06,12.06,0,0,1-1.13,4.74,10.79,10.79,0,0,1-2.81,3.68,12.81,12.81,0,0,1-4.3,2.39,17.43,17.43,0,0,1-5.63.85,15.36,15.36,0,0,1-6-1.11A12.37,12.37,0,0,1,74.48,237a14,14,0,0,1-2.78-5.07,21.9,21.9,0,0,1-1-6.72v-1.79a21.32,21.32,0,0,1,1-6.72,14.41,14.41,0,0,1,2.86-5.07,12.46,12.46,0,0,1,4.46-3.22,14.46,14.46,0,0,1,5.8-1.12,17.28,17.28,0,0,1,5.8.89,12.56,12.56,0,0,1,4.27,2.49,11.4,11.4,0,0,1,2.74,3.77,14.51,14.51,0,0,1,1.22,4.75H90.83a9.33,9.33,0,0,0-.38-2.45,4.14,4.14,0,0,0-1-1.77,4.56,4.56,0,0,0-1.82-1.07,8.85,8.85,0,0,0-2.72-.37,5.86,5.86,0,0,0-2.6.55,4.47,4.47,0,0,0-1.84,1.73,8.89,8.89,0,0,0-1.1,3.05,24.44,24.44,0,0,0-.35,4.51v1.84a26.33,26.33,0,0,0,.32,4.5,8.93,8.93,0,0,0,1,3.06,4.35,4.35,0,0,0,1.85,1.74,6.49,6.49,0,0,0,2.79.54,6.32,6.32,0,0,0,4.27-1.29,5.49,5.49,0,0,0,1.56-4.12Z"/><path class="cls-1" d="M130.18,241.3h-8V227.1H110.27v14.2h-8.06v-34h8.06v13.5h11.89v-13.5h8Z"/><path class="cls-1" d="M175.26,229.64a12.23,12.23,0,0,1-1.13,4.74,10.92,10.92,0,0,1-2.81,3.68,12.86,12.86,0,0,1-4.31,2.39,17.36,17.36,0,0,1-5.62.85,15.36,15.36,0,0,1-6-1.11,12.2,12.2,0,0,1-4.47-3.19,14.13,14.13,0,0,1-2.79-5.07,22.22,22.22,0,0,1-.95-6.72v-1.79a21,21,0,0,1,1-6.72,14.41,14.41,0,0,1,2.86-5.07,12.42,12.42,0,0,1,4.45-3.22,14.51,14.51,0,0,1,5.81-1.12,17.18,17.18,0,0,1,5.79.89,12.61,12.61,0,0,1,4.28,2.49,11.54,11.54,0,0,1,2.74,3.77,14.77,14.77,0,0,1,1.22,4.75h-8.07a8.93,8.93,0,0,0-.38-2.45,4.23,4.23,0,0,0-1-1.77A4.63,4.63,0,0,0,164,213.9a8.89,8.89,0,0,0-2.72-.37,5.83,5.83,0,0,0-2.6.55,4.5,4.5,0,0,0-1.85,1.73,8.9,8.9,0,0,0-1.09,3.05,24.35,24.35,0,0,0-.36,4.51v1.84a27.39,27.39,0,0,0,.32,4.5,9.15,9.15,0,0,0,1,3.06,4.33,4.33,0,0,0,1.84,1.74,6.53,6.53,0,0,0,2.8.54,6.27,6.27,0,0,0,4.26-1.29,5.45,5.45,0,0,0,1.57-4.12Z"/><path class="cls-1" d="M197.85,234.94H186.77l-1.93,6.36H176.2l12.3-34h7.6l12.4,34h-8.69Zm-9.14-6.33h7.21l-3.62-11.8Z"/><path class="cls-1" d="M237.44,229.64a12.41,12.41,0,0,1-1.13,4.74,11,11,0,0,1-2.81,3.68,13,13,0,0,1-4.31,2.39,17.36,17.36,0,0,1-5.62.85,15.36,15.36,0,0,1-6-1.11A12.2,12.2,0,0,1,213.1,237a14.13,14.13,0,0,1-2.79-5.07,21.91,21.91,0,0,1-.95-6.72v-1.79a21,21,0,0,1,1-6.72,14.55,14.55,0,0,1,2.85-5.07,12.55,12.55,0,0,1,4.46-3.22,14.51,14.51,0,0,1,5.81-1.12,17.18,17.18,0,0,1,5.79.89,12.46,12.46,0,0,1,4.27,2.49,11.4,11.4,0,0,1,2.74,3.77,14.78,14.78,0,0,1,1.23,4.75h-8.07a8.93,8.93,0,0,0-.38-2.45A4.14,4.14,0,0,0,228,215a4.49,4.49,0,0,0-1.82-1.07,8.78,8.78,0,0,0-2.71-.37,5.9,5.9,0,0,0-2.61.55,4.54,4.54,0,0,0-1.84,1.73,8.69,8.69,0,0,0-1.09,3.05,24.35,24.35,0,0,0-.36,4.51v1.84a27.39,27.39,0,0,0,.32,4.5,9.15,9.15,0,0,0,1,3.06,4.33,4.33,0,0,0,1.84,1.74,6.5,6.5,0,0,0,2.8.54,6.27,6.27,0,0,0,4.26-1.29,5.49,5.49,0,0,0,1.57-4.12Z"/><path class="cls-1" d="M268.85,241.3h-8V227.09H249V241.3h-8.07v-34H249v13.5h11.88v-13.5h8Z"/><rect class="cls-1" x="46.54" y="200.77" width="14.17" height="1.7"/><rect class="cls-1" x="184.3" y="200.77" width="14.17" height="1.7"/></svg>