<svg id="Layer_1" data-name="Layer 1" xmlns="http://www.w3.org/2000/svg" viewBox="0 0 280.29 252.75"><defs><style>.cls-1{fill:#fff;}.cls-2{fill:#161616;}</style></defs><title>fulllogo-white</title><circle class="cls-1" cx="140.96" cy="95.04" r="19.84"/><rect class="cls-1" x="84.32" y="151.55" width="113.39" height="28.35"/><rect class="cls-1" x="84.32" y="9.83" width="113.39" height="28.35"/><rect class="cls-1" x="132.55" y="80.88" width="101.95" height="28.35" transform="translate(278.58 -88.47) rotate(90)"/><rect class="cls-1" x="84.33" y="43.67" width="28.35" height="136.1"/><rect class="cls-1" x="118.23" y="117.69" width="79.46" height="28.35"/><rect class="cls-1" x="118.36" y="43.68" width="79.35" height="28.35"/><circle class="cls-2" cx="141" cy="100.49" r="11.34"/><path class="cls-2" d="M141,112.36a14.68,14.68,0,1,1,14.68-14.67A14.69,14.69,0,0,1,141,112.36ZM141,84a13.68,13.68,0,1,0,13.68,13.68A13.69,13.69,0,0,0,141,84Z"/><path class="cls-1" d="M21.47,230.29H35.55v6.3H13.39v-34h8.08Z"/><path class="cls-1" d="M58.92,230.24H47.84l-1.94,6.35H37.26l12.3-34h7.61l12.39,34H60.88Zm-9.15-6.33H57l-3.61-11.8Z"/><path class="cls-1" d="M98.49,224.94a12.06,12.06,0,0,1-1.13,4.74,10.79,10.79,0,0,1-2.81,3.68,13,13,0,0,1-4.3,2.39,17.68,17.68,0,0,1-5.62.85,15.29,15.29,0,0,1-6-1.11,12.22,12.22,0,0,1-4.47-3.2,14,14,0,0,1-2.79-5.06,21.94,21.94,0,0,1-1-6.72v-1.79a21,21,0,0,1,1-6.72,14.53,14.53,0,0,1,2.85-5.08,12.55,12.55,0,0,1,4.46-3.21,14.46,14.46,0,0,1,5.8-1.13,17.23,17.23,0,0,1,5.8.9A12.56,12.56,0,0,1,94.6,206a11.4,11.4,0,0,1,2.74,3.77,14.45,14.45,0,0,1,1.22,4.75H90.5a9.33,9.33,0,0,0-.38-2.45,4.12,4.12,0,0,0-1.05-1.78,4.6,4.6,0,0,0-1.82-1.07,8.87,8.87,0,0,0-2.72-.36,5.76,5.76,0,0,0-2.6.55,4.51,4.51,0,0,0-1.84,1.72,9,9,0,0,0-1.1,3.06,25.26,25.26,0,0,0-.35,4.51v1.84A26.33,26.33,0,0,0,79,225a9.23,9.23,0,0,0,1,3.06,4.27,4.27,0,0,0,1.85,1.73,6.35,6.35,0,0,0,2.8.55,6.26,6.26,0,0,0,4.26-1.3,5.45,5.45,0,0,0,1.56-4.11Z"/><path class="cls-1" d="M129.85,236.6h-8V222.39H110V236.6h-8.07v-34H110v13.51h11.88V202.58h8Z"/><path class="cls-1" d="M174.93,224.94a12.23,12.23,0,0,1-1.13,4.74,10.79,10.79,0,0,1-2.81,3.68,13,13,0,0,1-4.31,2.39,17.59,17.59,0,0,1-5.62.85,15.36,15.36,0,0,1-6-1.11,12.22,12.22,0,0,1-4.47-3.2,13.84,13.84,0,0,1-2.78-5.06,21.94,21.94,0,0,1-1-6.72v-1.79a21,21,0,0,1,1-6.72,14.55,14.55,0,0,1,2.86-5.08,12.47,12.47,0,0,1,4.46-3.21,14.46,14.46,0,0,1,5.8-1.13,17.17,17.17,0,0,1,5.79.9A12.51,12.51,0,0,1,171,206a11.54,11.54,0,0,1,2.74,3.77,14.45,14.45,0,0,1,1.22,4.75h-8.06a9.33,9.33,0,0,0-.38-2.45,4.32,4.32,0,0,0-1.05-1.78,4.68,4.68,0,0,0-1.82-1.07,8.87,8.87,0,0,0-2.72-.36,5.7,5.7,0,0,0-2.6.55,4.6,4.6,0,0,0-1.85,1.72,9,9,0,0,0-1.09,3.06,24.28,24.28,0,0,0-.36,4.51v1.84a26.23,26.23,0,0,0,.33,4.5,9,9,0,0,0,1,3.06,4.25,4.25,0,0,0,1.84,1.73,6.38,6.38,0,0,0,2.8.55,6.22,6.22,0,0,0,4.26-1.3,5.41,5.41,0,0,0,1.57-4.11Z"/><path class="cls-1" d="M197.53,230.24H186.45l-1.94,6.35h-8.64l12.3-34h7.6l12.4,34h-8.69Zm-9.15-6.33h7.21L192,212.11Z"/><path class="cls-1" d="M237.11,224.94a12.41,12.41,0,0,1-1.13,4.74,10.92,10.92,0,0,1-2.81,3.68,13.13,13.13,0,0,1-4.31,2.39,17.64,17.64,0,0,1-5.62.85,15.36,15.36,0,0,1-6-1.11,12.22,12.22,0,0,1-4.47-3.2,14,14,0,0,1-2.79-5.06,22.26,22.26,0,0,1-.95-6.72v-1.79a21,21,0,0,1,1-6.72,14.55,14.55,0,0,1,2.86-5.08,12.52,12.52,0,0,1,4.45-3.21,14.51,14.51,0,0,1,5.81-1.13,17.17,17.17,0,0,1,5.79.9,12.46,12.46,0,0,1,4.27,2.49,11.43,11.43,0,0,1,2.75,3.77,14.7,14.7,0,0,1,1.22,4.75h-8.07a8.93,8.93,0,0,0-.38-2.45,4.2,4.2,0,0,0-1-1.78,4.75,4.75,0,0,0-1.82-1.07,8.92,8.92,0,0,0-2.72-.36,5.7,5.7,0,0,0-2.6.55,4.54,4.54,0,0,0-1.85,1.72,9,9,0,0,0-1.09,3.06,24.28,24.28,0,0,0-.36,4.51v1.84a27.39,27.39,0,0,0,.32,4.5,9.22,9.22,0,0,0,1,3.06,4.25,4.25,0,0,0,1.84,1.73,6.35,6.35,0,0,0,2.8.55,6.22,6.22,0,0,0,4.26-1.3,5.45,5.45,0,0,0,1.57-4.11Z"/><path class="cls-1" d="M268.52,236.59h-8v-14.2H248.62v14.2h-8.06v-34h8.06v13.5H260.5v-13.5h8Z"/><rect class="cls-1" x="46.22" y="196.06" width="14.17" height="1.7"/><rect class="cls-1" x="183.97" y="196.06" width="14.17" height="1.7"/></svg>