<svg id="Layer_1" data-name="Layer 1" xmlns="http://www.w3.org/2000/svg" viewBox="0 0 19 19"><defs><style>.cls-1{fill:#161616;}</style></defs><title>instagram black</title><path class="cls-1" d="M9,18C6.54,18,6.25,18,5.29,18a6.73,6.73,0,0,1-2.18-.45A4.62,4.62,0,0,1,.48,14.9a6.25,6.25,0,0,1-.42-2.18C0,11.76,0,11.45,0,9S0,6.25.06,5.3A6.31,6.31,0,0,1,.48,3.11,4.6,4.6,0,0,1,3.11.48,6.54,6.54,0,0,1,5.29.06C6.25,0,6.56,0,9,0s2.77,0,3.71,0A6.55,6.55,0,0,1,14.9.48a4.57,4.57,0,0,1,2.63,2.63A6.73,6.73,0,0,1,18,5.33C18,6.29,18,6.6,18,9s0,2.76-.05,3.71a6.91,6.91,0,0,1-.42,2.19,4.65,4.65,0,0,1-2.64,2.63,6.8,6.8,0,0,1-2.18.42C11.76,18,11.45,18,9,18ZM9,1.59c-2.45,0-2.7,0-3.66,0A5.3,5.3,0,0,0,3.64,2,3,3,0,0,0,1.92,3.67a5.37,5.37,0,0,0-.31,1.68c-.05,1-.05,1.23-.05,3.66s0,2.69.05,3.65a5.3,5.3,0,0,0,.31,1.67A3,3,0,0,0,3.64,16a5,5,0,0,0,1.67.31c1,.06,1.23.06,3.66.06s2.71,0,3.65-.06A5,5,0,0,0,14.29,16,2.94,2.94,0,0,0,16,14.33a4.86,4.86,0,0,0,.31-1.69h0c.05-1,.05-1.21.05-3.65s0-2.7-.06-3.66A4.93,4.93,0,0,0,16,3.67,3,3,0,0,0,14.29,2a5,5,0,0,0-1.67-.31C11.65,1.59,11.4,1.59,9,1.59Zm0,12A4.62,4.62,0,1,1,13.62,9,4.6,4.6,0,0,1,9,13.62ZM9,6a3,3,0,1,0,3,3A3,3,0,0,0,9,6Zm4.8-.71a1.09,1.09,0,0,1-1.07-1.08,1.08,1.08,0,0,1,2.15,0,1.09,1.09,0,0,1-.31.77A1.12,1.12,0,0,1,13.8,5.29Z"/></svg>