<?xml version="1.0" encoding="utf-8"?>
<!-- Generator: Adobe Illustrator 22.0.1, SVG Export Plug-In . SVG Version: 6.00 Build 0)  -->
<svg version="1.1" id="Layer_1" xmlns="http://www.w3.org/2000/svg" xmlns:xlink="http://www.w3.org/1999/xlink" x="0px" y="0px"
	 viewBox="0 0 19 19" style="enable-background:new 0 0 19 19;" xml:space="preserve">
<style type="text/css">
	.st0{fill:#FFFFFF;}
</style>
<path class="st0" d="M9,18c-2.5,0-2.8,0-3.7-0.1c-0.7,0-1.5-0.2-2.2-0.5c-1.2-0.5-2.2-1.4-2.6-2.6c-0.3-0.7-0.4-1.4-0.4-2.2
	C0,11.8,0,11.4,0,9c0-2.5,0-2.8,0.1-3.7c0-0.7,0.2-1.5,0.4-2.2c0.5-1.2,1.4-2.2,2.6-2.6c0.7-0.3,1.4-0.4,2.2-0.4C6.2,0,6.6,0,9,0
	c2.5,0,2.8,0,3.7,0.1c0.7,0,1.5,0.2,2.2,0.4c1.2,0.5,2.2,1.4,2.6,2.6c0.3,0.7,0.4,1.5,0.4,2.2C18,6.3,18,6.6,18,9
	c0,2.4,0,2.8-0.1,3.7c0,0.7-0.2,1.5-0.4,2.2c-0.5,1.2-1.4,2.2-2.6,2.6c-0.7,0.3-1.4,0.4-2.2,0.4C11.8,18,11.4,18,9,18z M9,1.6
	c-2.4,0-2.7,0-3.7,0.1C4.7,1.7,4.2,1.8,3.6,2C2.9,2.3,2.2,2.9,1.9,3.7C1.7,4.2,1.6,4.8,1.6,5.4C1.6,6.3,1.6,6.6,1.6,9
	c0,2.4,0,2.7,0.1,3.7c0,0.6,0.1,1.1,0.3,1.7c0.3,0.8,0.9,1.4,1.7,1.7c0.5,0.2,1.1,0.3,1.7,0.3c1,0.1,1.2,0.1,3.7,0.1
	c2.5,0,2.7,0,3.7-0.1c0.6,0,1.1-0.1,1.7-0.3c0.8-0.3,1.4-0.9,1.7-1.7c0.2-0.5,0.3-1.1,0.3-1.7h0c0-1,0-1.2,0-3.7
	c0-2.4,0-2.7-0.1-3.7c0-0.6-0.1-1.1-0.3-1.7c-0.3-0.8-0.9-1.4-1.7-1.7c-0.5-0.2-1.1-0.3-1.7-0.3C11.7,1.6,11.4,1.6,9,1.6z M9,13.6
	c-1.9,0-3.6-1.1-4.3-2.9C4,9,4.4,7.1,5.7,5.7c1.3-1.3,3.3-1.7,5-1c1.7,0.7,2.9,2.4,2.9,4.3C13.6,11.6,11.6,13.6,9,13.6z M9,6
	C7.3,6,6,7.3,6,9c0,1.7,1.3,3,3,3s3-1.3,3-3C12,7.3,10.7,6,9,6z M13.8,5.3c-0.6,0-1.1-0.5-1.1-1.1c0-0.6,0.5-1.1,1.1-1.1
	c0.6,0,1.1,0.5,1.1,1.1c0,0.3-0.1,0.6-0.3,0.8C14.4,5.2,14.1,5.3,13.8,5.3z"/>
</svg>
