<svg id="Layer_1" data-name="Layer 1" xmlns="http://www.w3.org/2000/svg" viewBox="0 0 280.29 252.75"><defs><style>.cls-1{fill:#fff;}.cls-2{fill:#161616;}</style></defs><title>logosymbol-white</title><circle class="cls-1" cx="136.63" cy="128.04" r="19.84"/><rect class="cls-1" x="79.99" y="184.55" width="113.39" height="28.35"/><rect class="cls-1" x="79.99" y="42.83" width="113.39" height="28.35"/><rect class="cls-1" x="128.22" y="113.88" width="101.95" height="28.35" transform="translate(307.25 -51.14) rotate(90)"/><rect class="cls-1" x="80" y="76.67" width="28.35" height="136.1"/><rect class="cls-1" x="113.9" y="150.69" width="79.46" height="28.35"/><rect class="cls-1" x="114.02" y="76.68" width="79.35" height="28.35"/><circle class="cls-2" cx="136.66" cy="133.49" r="11.34"/><path class="cls-2" d="M136.68,145.36a14.68,14.68,0,1,1,14.67-14.67A14.69,14.69,0,0,1,136.68,145.36Zm0-28.35a13.68,13.68,0,1,0,13.67,13.68A13.69,13.69,0,0,0,136.68,117Z"/></svg>