<svg id="Layer_1" data-name="Layer 1" xmlns="http://www.w3.org/2000/svg" viewBox="0 0 280.29 252.75"><defs><style>.cls-1{fill:#161616;}.cls-2{fill:#fff;}</style></defs><title>logosymbol-black</title><circle class="cls-1" cx="138.63" cy="134.37" r="19.84"/><rect class="cls-1" x="81.99" y="190.89" width="113.39" height="28.35"/><rect class="cls-1" x="81.99" y="49.16" width="113.39" height="28.35"/><rect class="cls-1" x="130.22" y="120.21" width="101.95" height="28.35" transform="translate(315.58 -46.8) rotate(90)"/><rect class="cls-1" x="82" y="83.01" width="28.35" height="136.1"/><rect class="cls-1" x="115.9" y="157.02" width="79.46" height="28.35"/><rect class="cls-1" x="116.02" y="83.01" width="79.35" height="28.35"/><circle class="cls-2" cx="138.66" cy="139.83" r="11.34"/><path class="cls-2" d="M138.68,151.69A14.67,14.67,0,1,1,153.35,137,14.69,14.69,0,0,1,138.68,151.69Zm0-28.34A13.67,13.67,0,1,0,152.35,137,13.68,13.68,0,0,0,138.68,123.35Z"/></svg>