<svg id="Layer_1" data-name="Layer 1" xmlns="http://www.w3.org/2000/svg" viewBox="0 0 703.44 589.47"><defs><style>.cls-1,.cls-8{fill:#f74133;}.cls-2,.cls-3,.cls-4{fill:#fff;}.cls-2,.cls-6,.cls-7{stroke:#fff;}.cls-10,.cls-2,.cls-3,.cls-4,.cls-6,.cls-7,.cls-8,.cls-9{stroke-miterlimit:10;}.cls-2{stroke-width:5.67px;}.cls-3,.cls-4,.cls-8,.cls-9{stroke:#161616;}.cls-3,.cls-8{stroke-width:2.83px;}.cls-4,.cls-6,.cls-9{stroke-width:4px;}.cls-5,.cls-6{fill:#161616;}.cls-10,.cls-7,.cls-9{fill:none;}.cls-7{stroke-width:2px;}.cls-10{stroke:#f74133;stroke-width:2.83px;}</style></defs><title>search</title><circle class="cls-1" cx="163.8" cy="350.03" r="100"/><polyline class="cls-2" points="48.25 486.32 159.55 486.32 688.25 486.32"/><path class="cls-3" d="M165.7,486.92c3.2,1.81-23.81-63.88,21.11-167.25,16.31-24,41.26-78.22,122.82-127.89,0,0,33.82,43.55,84.55,32.39,14.76-9.35,41.38-31.31,42.1-41.39,11.16,6.48,70.17,46.79,100,99.7s41,84.22,39.1,124.53c0,0,2.64,48.59-14.27,80.27-19.43,0-395.44-.36-395.44-.36"/><path class="cls-4" d="M416,62.88c-11.67-8.74-25-15-39.59-15.69-27.31-1.31-67.54,8.53-75.78,75-12.71,102.66,70.1,107.28,90.2,102.1s59.54-42.13,60.24-91C451.66,89.13,432.83,75.54,416,62.88Z"/><ellipse class="cls-5" cx="333.81" cy="112.38" rx="5.76" ry="13.85" transform="translate(155.2 415.95) rotate(-78.14)"/><path class="cls-5" d="M329.15,60.85l91,4.86C419.86,64.07,387.87,28.1,329.15,60.85Z"/><path class="cls-6" d="M430.39,66.85,322.65,58.41s-9.26,12.31-7.22,18.66,113,16.39,122.39,13.84S430.39,66.85,430.39,66.85Z"/><line class="cls-7" x1="319.42" y1="66.14" x2="435.59" y2="75.06"/><path class="cls-7" d="M316,73.72S427.78,85.94,438.88,83.8"/><path class="cls-7" d="M414.44,65.77s9.48,14.77,11.83,25.09"/><path class="cls-7" d="M401.69,65.45s9.27,20.39,9.17,23.2"/><path class="cls-7" d="M386.3,63.75s8.13,22.75,7.88,27.35"/><path class="cls-7" d="M372.93,61.42s5.82,22.62,5.35,28"/><path class="cls-7" d="M356.67,62.32s8.2,19.43,5.19,24.94"/><path class="cls-7" d="M342.75,59.51s4.75,16.82,2.33,23.83"/><path class="cls-7" d="M329.7,58.44S328,79.18,326.62,81.3"/><path class="cls-6" d="M267.89,92.93s-41.67,58-46,90.89c21.14,13.79,35.38,19.46,35.38,19.46S305.88,98,301.25,88s-30.73,3.39-30.73,3.39c8.15-4.78,37.76-13,37.76-13"/><path class="cls-7" d="M283.25,88s-45.3,78.61-51.31,99"/><path class="cls-7" d="M298.48,85.56s-52.43,98.63-54.22,109.26"/><line class="cls-7" x1="261.24" y1="101.79" x2="296.03" y2="110.42"/><line class="cls-7" x1="254.13" y1="114.76" x2="289.94" y2="129.44"/><line class="cls-7" x1="246.32" y1="127.08" x2="283.23" y2="143.41"/><line class="cls-7" x1="237.43" y1="138.44" x2="277.84" y2="156.62"/><line class="cls-7" x1="231.11" y1="153.4" x2="272.27" y2="172.89"/><line class="cls-7" x1="225.87" y1="169.32" x2="264.85" y2="186.22"/><path class="cls-6" d="M318.23,56.86s-12.08-20.49-39-9.83-21.39,23.35-21.39,23.35l15.47,31.26s20.21-3.15,39.18-24.32C313.17,66.83,314.47,62.68,318.23,56.86Z"/><path class="cls-7" d="M314.28,59.12s-21.76-6.45-54,10.1"/><path class="cls-7" d="M313.25,68.35s-34.38,5-49.71,13.44"/><path class="cls-7" d="M295.15,44.88s4.07,37,4.85,42"/><path class="cls-7" d="M279.21,47s7.43,42.41,9.37,50"/><path class="cls-3" d="M396,293.28s54,6.48,77.72-22.32"/><path class="cls-3" d="M331.93,278.88s9.36,13.68,30.23,17.28"/><path class="cls-5" d="M325.94,208.34l50.85,64.3,50.86-74.86C427.6,193.16,393,255.26,325.94,208.34Z"/><path class="cls-3" d="M207.44,443s86-105.81,100.39-126,29.86-25.55,21.23-68.74C306,179.18,306.43,180.9,310,167c3.88-15.23,20.59,13.36,30.22,31,4.84,8.84,18.35,35.63,24.11,75.94S207.44,709.35,167.14,496.27,312.5,191.06,312.5,191.06"/><rect class="cls-8" x="421.36" y="181.89" width="7.68" height="88.3" transform="translate(-27.42 61.65) rotate(-8.03)"/><ellipse class="cls-8" cx="412.97" cy="137.63" rx="45.1" ry="45.11"/><path class="cls-3" d="M437.72,182.42S623.39,300.48,564.38,479c-5.09,15.39-10.59,27.63-16.38,37.09-61.39,100.27-156.21-110.84-154.9-175.3,1.44-70.55,15.84-133.89,53.26-105.1s95,184.28,95,184.28"/><ellipse class="cls-5" cx="418.92" cy="130" rx="10.06" ry="24.19" transform="translate(221.11 521.49) rotate(-80.43)"/><path class="cls-9" d="M313.68,82.26s49.12,8.27,46.12,41.82S361.66,166.13,372,165c13-1.48,12.52-43.81,17.81-51.7,12.92-19.31,50.4-6.5,59.92-3.8"/><circle class="cls-5" cx="376.79" cy="284.16" r="5.28"/><circle class="cls-5" cx="376.79" cy="335.99" r="5.28"/><circle class="cls-5" cx="376.79" cy="384.46" r="5.28"/><circle class="cls-5" cx="376.79" cy="429.09" r="5.28"/><circle class="cls-5" cx="376.79" cy="471.8" r="5.28"/><circle class="cls-1" cx="563.05" cy="148.78" r="25"/><circle class="cls-10" cx="553.55" cy="147.28" r="35"/></svg>