<?xml version="1.0" encoding="utf-8"?>
<!-- Generator: Adobe Illustrator 22.0.1, SVG Export Plug-In . SVG Version: 6.00 Build 0)  -->
<svg version="1.1" id="Layer_1" xmlns="http://www.w3.org/2000/svg" xmlns:xlink="http://www.w3.org/1999/xlink" x="0px" y="0px"
	 viewBox="0 0 356.6 231.9" style="enable-background:new 0 0 356.6 231.9;" xml:space="preserve">
<style type="text/css">
	.st0{fill:none;stroke:#F74133;stroke-width:2;stroke-linecap:round;stroke-linejoin:round;}
</style>
<g id="BAC">
	<line class="st0" x1="158.5" y1="136.2" x2="158.5" y2="136.2"/>
	<path class="st0" d="M134.1,83.9c0,2-1,2.5,0,6.2c1,3.5,1.1,8-0.4,8.9s-4.6-0.1-5.6-3.1c-2-2-5.9,4.5-9,5
		c-4.1,0.6-9.8-12.2-16.4-5.7c-1-3.6-2.9-6.8-5.6-9.3c0-3,2-18-3-21c-4,0-13,1-9-7c0-3.8-2.6-7.3-5.1-9.5c1.8,1.1,5.1-1.5,5.1-1.5
		s1-8,3-11s10,11,12,14s7,10,9,8s2-14,5-17s9-6,9-6s8,10,12,9v7c0,0,5,1,2,8c0,2,0,7,5,9c1.4,2.8,2,5.9,2,9c2,0,4,1,3,6
		C145.1,83.9,138.1,83.9,134.1,83.9z"/>
	<path class="st0" d="M161.7,125.6c4.3,4.4,2.4,8.3,1.4,9.3c-1.4,0.9-3,1.3-4.6,1.3c-2,0.2-3.8-0.9-4.6-2.7
		c-3.3-3.4-9.7-2.6-12.7-2.6c-2,0-4,4-7,2c-9-4-8-13-7-15c2-1,2-4,1.2-5.2s-3.2-0.8-6.2,1.2c-11,5-19-4-19-4c0.7,0,1.8-7.4-0.4-14.7
		c6.5-6.5,12.3,6.3,16.4,5.7c3.1-0.5,7-7,9-5c1,3,4,4,5.6,3.1s1.4-5.4,0.4-8.9c-1-3.8,0-4.2,0-6.2c4,0,11,0,13-1c1-5-1-6-3-6
		c5-5,7,1,10,3c1.9,1.2,4.1,1.8,6.4,1.6c5.4,2.6,18.6,30.4,18.6,30.4s-8,4-13,5S159.8,122.5,161.7,125.6z"/>
	<path class="st0" d="M237.4,221.4c-1.5,3.9-3.6,4.2-1.9,8.9c-1.8-0.3-3.6-0.7-5.3-1.4c2-5-1-7-7-9c-17-6-21.3-17.7-21.3-17.7
		c2.8,0.8,5.7,1.7,7.3,1.7c3,0,1-4-1-6c5,3,8.1-1.5,11-1.8l4.4,1.8c0,0-3.3,9.5,5.7,11.3S241.6,215,237.4,221.4z"/>
	<path class="st0" d="M239.7,191.3c0,0-1.7,4.1-3.1,4.8c-1.9,0.5-3.5-1.2-5.5,1.8h-7.7l-4.4-1.8c-3-0.8-4-7.2-4-9.2c3-6,6-3,11-4
		c4.5-0.9,3.3-3.5,3.1-4c1.7,2.5,3.8,4.7,6.3,5.5C235.4,184.4,237.4,187.6,239.7,191.3z"/>
	<path class="st0" d="M264.1,207.9c0,0-2,6-11,6c0,0-4,8-8,9c0,0-4,7-6,8c0,0-1.7-0.2-3.7-0.6c-1.7-4.6,0.4-4.9,1.9-8.9
		c4.2-6.5,0.8-10.5-8.2-12.3s-5.7-11.3-5.7-11.3h7.7c2-3,3.5-1.2,5.5-1.8c1.5-0.8,3.1-4.8,3.1-4.8c2.7,4.5,5.9,9.9,6.4,11.6
		C248.1,202.9,259.1,204.9,264.1,207.9z"/>
	<path class="st0" d="M269.1,186.9c0,0-2,6-3,6c0,0,0,9-2,15c-5-3-16-5-18-5c-0.5-1.6-3.7-7-6.4-11.6c-2.3-3.7-4.2-6.9-4.2-6.9
		s6.7-0.5,9.7-3.5h9.2c0,0-1.2,7,7.8,7C264.1,185.9,266.1,184.9,269.1,186.9z"/>
	<path class="st0" d="M245.1,180.9c-3,3-9.7,3.5-9.7,3.5c-2.5-0.8-4.6-3-6.3-5.5v-0.1l0,0c-2.2-3.7-3.9-7.7-5-11.9c0,0,0-4,5-7
		c0,0,9.1,1.1,10.6,2.5c-4,3.6-2.1,9.9,0.4,12.5C242,176.8,243.6,178.8,245.1,180.9z"/>
	<path class="st0" d="M226.1,182.9c-5,1-8-2-11,4c-5-1-8-7-8-14s-21-17.8-21-17.8c0.9-3.4,2-7.3,3-10.2c1.9-5.8,6-4,6.3-3.9l0,0
		c0.4,1.8,0.6,3.3,1.6,4.1c2.1,1.8,5.1,4.8,10.1,2.8c1.9-2.6,3.5-5.4,4.9-8.3l1.1,1.3v24.2c0,0,5,3.8,11,1.8c1.1,4.2,2.8,8.2,5,11.9
		l0,0v0.1C229.4,179.4,230.6,182,226.1,182.9z"/>
	<path class="st0" d="M208.1,197.9c2,2,4,6,1,6c-1.6,0-4.5-0.9-7.3-1.7c-2.5-0.7-4.9-1.2-6.4-0.9c-3.6-0.7-9.6-3.6-18.5-14
		c-5.7-0.8-12.1,1-18.5-3.7c-0.6-1.3,0.6-6.7,4.6-6.7c4,1,7,0,8-1s3-7-2-11c-11-6-7.9-17.9-7.9-17.9c6.3,14.4,20.6,16.2,22.7,15.4
		c0.9-2.4,1.6-4.8,2.2-7.3c0,0,21,10.7,21,17.8s3,13,8,14c0,2,0.9,8.5,4,9.2C216.2,196.4,213.1,200.9,208.1,197.9z"/>
	<path class="st0" d="M212,130.9v8.7c-1.3,2.9-3,5.7-4.9,8.3c-5,2-8-1-10.1-2.8c-1-0.8-1.2-2.3-1.6-4.1l0,0c-0.5-2.2-1-4.9-3.3-7.1
		c-4-4-3-7-3-7s12,1,14-7c0,0,4.7,5.1,5.4,7C209.1,128.6,210.4,130,212,130.9z"/>
	<path class="st0" d="M230.1,154.9c-0.2,1.7-0.6,3.4-1,5c-5,3-5,7-5,7c-6,2-11-1.8-11-1.8v-24.2l-1.1-1.3v-8.7
		c1.3,0.8,2.7,1.5,4.1,2c2.8,1.8,5.5,3.8,8,6l3,5c0,0-3,1-3,5S230.1,153.9,230.1,154.9z"/>
	<path class="st0" d="M242.1,160.9c-0.9,0.4-1.7,0.9-2.4,1.5c-1.4-1.5-10.6-2.5-10.6-2.5c0.4-1.6,0.8-3.3,1-5c0-1-6-2-6-6s3-5,3-5
		c3.4,0,6.8,1,9.7,2.9c5.3,3.1,11.3,6.1,11.3,6.1S249.1,157.9,242.1,160.9z"/>
	<path class="st0" d="M293.1,137.9c0,0-5,20-28,12c-8-9-17,3-17,3s-6-3-11.3-6.1c-2.9-1.8-6.3-2.8-9.7-2.9l-3-5c1-2,6-5,7-8
		c1-3,0-7,2-10c3-2,7.2-0.2,7.2-0.2c-0.9,0.8-1.5,1.5-1.2,2.2c0,2,1,4,4,5c3,1,5,5,7,6s6,1,9-4c3-5,4-10,21-8c1,4,1,7,6,9
		S291.1,136.9,293.1,137.9z"/>
	<path class="st0" d="M263.8,160.5c-5.3,9.6-2.7,15.4-4.7,17.4s-3,3-4.8,3h-9.2c-1.5-2.1-3.2-4.2-5-6c-2.6-2.6-4.4-8.9-0.4-12.5
		c0.7-0.6,1.5-1.2,2.4-1.5c7-3,6-8,6-8s9-12,17-3c-6,0-7,2-8,4C257.1,157.4,260.3,159.4,263.8,160.5z"/>
	<path class="st0" d="M280.1,181.9c0,0-3,2-6,1c0,0-3,4-5,4c-3-2-5-1-7,1c-9,0-7.8-7-7.8-7c1.8,0,2.8-1,4.8-3s-0.7-7.8,4.7-17.4
		c0.4,0.1,0.9,0.3,1.3,0.4c3.6,0.7,7.2,1.2,10.9,1.5c0,0,0.9,8.3,0,8.9s-2.9,2.6-1.9,3.6c0.7,0.6,1.7,1.1,2.6,1.2
		c-0.9,1-1.8,1.8-2.6,1.8C274.1,177.9,280.1,177.9,280.1,181.9z"/>
	<path class="st0" d="M343.1,161.9l-1,3l-1.3-0.8l-3.7,4.2v-5.4l2-3c0,0,2,1,1.9,0C340.9,158.9,343.1,161.9,343.1,161.9z"/>
	<path class="st0" d="M332.1,155.9l-3,4l-3,3v2l-1,5l-5,5c-0.6,0-1-0.4-1-1c0-1,1.6-3.6,1.6-3.6h-5.6l-1-0.4l-3.6-2l1.6-3l7,3l3-6h2
		l0.9-2.2l2-3.8H332.1z"/>
	<path class="st0" d="M357.1,127.9c0,3-4,5-6,6c-2-2-3-3-3-4s-7,0-7,0l-1,5c0,0-7,1-8,6c0,0-3,2-3,3l-4-1l-1,2c0,0-2,3.6,0,4.3
		c1.3,0.4,2.6,0.7,4,0.7c0,0-4,2-4,4s-5,7-5,7l-2-2c0.5-1.3,0.8-2.6,1-4c0-1,2-4,2-4v-3l-2-2l-3,3l2,5l-1,4l-2,1l-2,2l-5,1l-4,6
		l-3-3l-1-5l-2,2h-2l-3.9,6l-6.1-3c0,0-1,6-6,8c-0.7,1.1-1.5,2.2-2.3,3.2l0,0c-1-0.1-1.9-0.6-2.6-1.2c-1-1,1-3,1.9-3.6s0-8.9,0-8.9
		c-3.7-0.3-7.3-0.8-10.9-1.5c-0.5-0.1-0.9-0.2-1.3-0.4c-3.5-1.1-6.7-3.1-6.7-6.6c1-2,2-4,8-4c23,8,28-12,28-12c2,1,13-1,13-1
		s0-4-2-6c-1-3-2-9,11-10c2,0,6,0,8-2c2,1,6,5,12,0C338.1,118.9,349.1,117.9,357.1,127.9z"/>
	<path class="st0" d="M304.1,130.9c2,2,2,6,2,6s-11,2-13,1s-2-5-7-7s-5-5-6-9c-17-2-18,3-21,8c-3,5-7,5-9,4s-4-5-7-6c-3-1-4-3-4-5
		c-0.3-0.6,0.3-1.4,1.2-2.2c2-1.7,5.8-3.8,5.8-5.8c0-3-3-2-6-3s-3.3-11-3.3-11c-0.5-4-1.7-7,5.3-14c3-4,6-13,0-18c2-1,2-6,6-3
		c3,3,3,7,6,7c3,0,0-4,12-5c1,2,10,4,8,24c3,3,18,9,20,8c0.7,2.6,1,5.3,1,8c3,1,10,4,10,7c1.5-0.8,2.8-1.8,4-3c0,0,6,5,6,9
		C302.1,121.9,303.1,127.9,304.1,130.9z"/>
	<path class="st0" d="M246.1,114.9c0,2-3.8,4.1-5.8,5.8c0,0-4.2-1.8-7.2,0.2c-2,3-1,7-2,10c-1,3-6,6-7,8c-2.5-2.2-5.2-4.2-8-6
		c-1.4-0.6-2.8-1.2-4.1-2c-1.6-0.8-2.8-2.2-3.5-3.9c-0.6-2-5.4-7-5.4-7c-2-1-3.4-5-1.7-8s1.7-12,0.7-14c4-2,11-7,17-2c4,2,7,0,10,1
		s5.5,3,7.7,4c0,0,0.3,10,3.3,11S246.1,111.9,246.1,114.9z"/>
	<path class="st0" d="M242.1,86.9c-7,7-5.7,10-5.3,14c-2.3-1-4.7-3-7.7-4s-6,1-10-1c-6-5-13,0-17,2c-10-19-3-25,1-30s3-13,3-13
		c0.7,0.1,1.3,0.1,2,0c5-1,7-7.1,12.5-3.6c1,2.1-2.5,2.6-2.5,4.6s-2,8,7,8c5,0,7-3,9-3s4,2,4,7c2,1,2,2,4,1
		C248.1,73.9,245.1,82.9,242.1,86.9z"/>
	<path class="st0" d="M283.1,39.9c0,0-6,8-6,13s-2,6-2,6s-8-2-9-3c1,4,1,11,0,12c-12,1-9,5-12,5c-3,0-3-4-6-7c-4-3-4,2-6,3s-2,0-4-1
		c0-5-2-7-4-7s-4,3-9,3c-9,0-7-6-7-8s3.5-2.4,2.5-4.6c-5.5-3.6-7.5,2.6-12.5,3.6c-0.7,0.1-1.3,0.1-2,0c-3.3-0.7-4-5-4-5
		c3-4-10-11-12-12c1-6,4-7,10-8s6-12.7,6-12.7c0.7,1.2,1.4,2.4,2,3.7c4,3,12,4,12,4s2,11,10,7s13-4,13-4s9,9,9,10s8-2,10-3s9,0,10,2
		S283.1,39.9,283.1,39.9z"/>
	<path class="st0" d="M203.1,67.9c-4,5-11,11-1,30c1,2,1,11-0.7,14s-0.3,7,1.7,8c-2,8-14,7-14,7l-10-15c0,0-13.2-27.9-18.6-30.4
		c2.1-0.2,3.9-1.6,4.6-3.6c2-5,3-8,6-6s5-2,6-6c2-13,5-15,8-15c2,1,14,3,17-1c0,0,0.7,4.4,4,5C206.1,54.9,207.1,62.9,203.1,67.9z"/>
	<path class="st0" d="M195.4,141c-0.3-0.1-4.3-1.9-6.3,3.9c-1,2.9-2,6.8-3,10.2c-0.6,2.5-1.3,4.9-2.2,7.3
		c-2.1,0.8-16.5-1.1-22.7-15.4c-1.5-3.4-2.4-7.1-2.7-10.8c1.6,0,3.2-0.4,4.6-1.3c1-1,2.9-5-1.4-9.3c-1.9-3-0.6-7.7,4.4-8.7
		s13-5,13-5l10,15c0,0-1,3,3,7C194.3,136.1,194.9,138.8,195.4,141z"/>
	<path class="st0" d="M190.1,37.9c2,1,15,8,12,12s-15,2-17,1c-3,0-6,2-8,15c-1,4-3,8-6,6s-4,1-6,6c-0.7,2-2.5,3.4-4.6,3.6
		c-2.2,0.2-4.5-0.3-6.4-1.6c-3-2-5-8-10-3c0-3.1-0.6-6.2-2-9c-5-2-5-7-5-9c3-7-2-8-2-8v-7c4-1,3-6,17-7c5-2,8-7,9-12s1-9,7-11
		s23-8,25-12c0,0,8.2,7.5,13,15.3c0,0,0,11.7-6,12.7S191.1,31.9,190.1,37.9z"/>
	<path class="st0" d="M171.1,175.9c-1,1-4,2-8,1c-4,0-5.2,5.4-4.6,6.7l-13.4-0.7c-2-5-20-20-26-23c-5,0-8,1-9,3c-3,1-13-2-18,15
		c-5,0-13-7-15-9c0,0-13,2-18-7c0,0-1-1,2-4c3-3,1-6,2-7c1-1,8,2,8,2c-0.1-1.7-0.4-3.4-1-5c2-3,4-9,3-13c-4-3-5-5-4-8
		c1.7,1.3,3.9,1.9,6,1.8c2-0.2,1-3.8,0-6.8c7-3,8.2-13,4.8-21c-4.2-9,2.1-11.7,2.1-11.7c6,4.6,10.3,9.3,12.2,15.6
		c2.2,2.8,5.5,4.6,9,5c0,0,8,9,19,4c3-2,5.4-2.5,6.2-1.2s0.8,4.2-1.2,5.2c-1,2-2,11,7,15c3,2,5-2,7-2c3,0,9.5-0.9,12.7,2.6
		c0.8,1.8,2.7,2.9,4.6,2.7c0.3,3.7,1.2,7.4,2.7,10.8c0,0-3.1,11.9,7.9,17.9C174.1,168.9,172.1,174.9,171.1,175.9z"/>
	<path class="st0" d="M103.1,109.9c-3.5-0.4-6.8-2.2-9-5c-1.8-6.4-6.1-11.1-12.2-15.6c-0.6-0.5-1.2-0.9-1.8-1.4c-7-5-13,4-13,4
		s-15-12-20-13s-16-6-16-6l-19-24c2-2,4-7,5-9c2-2,9-2,14,2s11,14,13,16s8,1,12-4s13-17,14-17s8,6,9,10c0.1,0.4,0.3,0.9,0.6,1.2
		c0.1,0.1,0.2,0.2,0.3,0.3c2.5,2.2,5.1,5.7,5.1,9.5c-4,8,5,7,9,7c5,3,3,18,3,21c2.7,2.5,4.7,5.7,5.6,9.3
		C104.9,102.5,103.8,109.9,103.1,109.9z"/>
	<path class="st0" d="M79.8,100.9c3.5,8,2.2,18-4.8,21c1,3,2,6.6,0,6.8c-2.1,0.1-4.3-0.5-6-1.8c-1,3,0,5,4,8c1,4-1,10-3,13
		c0.6,1.6,0.9,3.3,1,5c0,0-7-3-8-2c-1,1,1,4-2,7c-3,3-2,4-2,4c-6,0-8-3-8-5c-1-3-13-17-15-19s4-10,6-11c1-4-2-4,0-8s4-10-1-13
		c-2-3-3-10-3-10s-4,12-7,14c-3,0-6-12-8-17c-4-4-25-25-24-28s11-14,13-16l19,24c0,0,11,5,16,6s20,13,20,13s6-9,13-4
		c0.6,0.5,1.2,0.9,1.8,1.4C81.9,89.3,75.6,91.9,79.8,100.9z"/>
	<polygon class="st0" points="297.2,175.6 296.1,177.9 295.1,178.9 294.1,182.9 292.2,182.9 290.1,179.9 285.7,176.1 285.7,172.1 
		287.1,170.9 292.1,170.9 293.1,173.2 295.1,173.9 295.1,175.6 	"/>
	<path class="st0" d="M332.1,155.9l-3,4l-3,3v2l-1,5l-5,5c-0.6,0-1-0.4-1-1c0-1,1.6-3.6,1.6-3.6h-5.6l-1-0.4l-3.6-2l1.6-3l7,3l3-6h2
		l0.9-2.2l2-3.8H332.1z"/>
	<path class="st0" d="M343.1,161.9l-1,3l-1.3-0.8l-3.7,4.2v-5.4l2-3c0,0,2,1,1.9,0C340.9,158.9,343.1,161.9,343.1,161.9z"/>
</g>
</svg>
