<?xml version="1.0" encoding="utf-8"?>
<!-- Generator: Adobe Illustrator 25.1.0, SVG Export Plug-In . SVG Version: 6.00 Build 0)  -->
<svg version="1.1" id="Capa_1" xmlns="http://www.w3.org/2000/svg" xmlns:xlink="http://www.w3.org/1999/xlink" x="0px" y="0px"
	 viewBox="0 0 22.1 22.1" style="enable-background:new 0 0 22.1 22.1;" xml:space="preserve">
<style type="text/css">
	.st0{fill:#FFFFFF;}
</style>
<g>
	<path class="st0" d="M5.8,1.6c0.4,0.7,1,1.3,1.3,2.1C7.3,4.1,7.9,4.1,8.4,4C9.3,3.7,9.1,4.7,9.6,5c0.2,0.1-0.1,0.4-0.3,0.5
		C7.7,5.8,8.4,6.3,9.1,6.8c1.7,1.1,2.7,2.9,4,4.4c0.9,1.1,0,2.7,0.4,4.1c0.2,0.8-0.1,1.3-0.9,1.5c-1.4,0.4-1.9,1.9-3.2,2.3
		c-0.1,0-0.2,0.3-0.2,0.3c1.1,0.6,0,1.8,0.6,2.6c0.2-0.1,0.3-0.1,0.5-0.2c1.5-1.1,2.8-2.6,4.6-3.3c0.5-0.2,1-0.5,1.2-1.1
		c0.5-2.4,0.3-4.7-1.5-6.5c-1-1-2-2-3-3.2c-0.8-1-0.7-1.7,0.1-2.6c0.7-0.8,1.5-1.6,2.6-2.3c-1.6-0.5-2-0.7-1.9-1.2
		c0.2-0.8-0.2-1.1-0.8-0.9c-0.7,0.2-1-1-1.6-0.4C9,1.2,7.7,1,6.4,0.9C6,0.9,5.7,1.4,5.8,1.6z"/>
</g>
</svg>
