<?xml version="1.0" encoding="utf-8"?>
<!-- Generator: Adobe Illustrator 22.0.1, SVG Export Plug-In . SVG Version: 6.00 Build 0)  -->
<svg version="1.1" id="Layer_1" xmlns="http://www.w3.org/2000/svg" xmlns:xlink="http://www.w3.org/1999/xlink" x="0px" y="0px"
	 viewBox="0 0 48 48" style="enable-background:new 0 0 48 48;" xml:space="preserve">
<style type="text/css">
	.st0{fill:#161616;}
</style>
<path class="st0" d="M19.8,26.3c-1.1-0.8-1.9-1.7-2.5-2.3c0.5-0.6,1.4-1.5,2.5-2.3c1.3-1,2.8-1.7,4.2-1.7s2.9,0.7,4.2,1.7
	c1.1,0.8,1.9,1.7,2.5,2.3c-0.5,0.6-1.4,1.5-2.5,2.3c-1.3,1-2.8,1.7-4.2,1.7S21.1,27.3,19.8,26.3z M24,18c-2,0-4,1.1-5.4,2.1
	c-1.5,1.1-2.6,2.3-3.1,2.9c-0.5,0.6-0.5,1.4,0,1.9c0.5,0.6,1.6,1.8,3.1,2.9C20,28.9,22,30,24,30s4-1.1,5.4-2.1
	c1.5-1.1,2.6-2.3,3.1-2.9c0.5-0.6,0.5-1.4,0-1.9c-0.5-0.6-1.6-1.8-3.1-2.9C28,19.1,26,18,24,18z M24,26c1.1,0,2-0.9,2-2s-0.9-2-2-2
	s-2,0.9-2,2S22.9,26,24,26z"/>
</svg>
